<?xml version="1.0" encoding="UTF-8" standalone="no"?>
<!DOCTYPE svg PUBLIC "-//W3C//DTD SVG 1.1//EN"
 "http://www.w3.org/Graphics/SVG/1.1/DTD/svg11.dtd">
<!-- Generated by graphviz version 2.38.0 (20140413.2041)
 -->
<!-- Title: G Pages: 1 -->
<svg width="885pt" height="1192pt"
 viewBox="0.00 0.00 885.00 1192.00" xmlns="http://www.w3.org/2000/svg" xmlns:xlink="http://www.w3.org/1999/xlink">
<g id="graph0" class="graph" transform="scale(1 1) rotate(0) translate(4 1188)">
<title>G</title>
<polygon fill="white" stroke="none" points="-4,4 -4,-1188 881,-1188 881,4 -4,4"/>
<g id="clust1" class="cluster"><title>cluster_Global</title>
<path fill="none" stroke="gray" d="M20,-8C20,-8 857,-8 857,-8 863,-8 869,-14 869,-20 869,-20 869,-1164 869,-1164 869,-1170 863,-1176 857,-1176 857,-1176 20,-1176 20,-1176 14,-1176 8,-1170 8,-1164 8,-1164 8,-20 8,-20 8,-14 14,-8 20,-8"/>
<text text-anchor="middle" x="438.5" y="-1163.2" font-family="Times New Roman,serif" font-size="11.00" fill="gray">Global</text>
</g>
<g id="clust2" class="cluster"><title>cluster_\phpWTL</title>
<path fill="none" stroke="gray" d="M28,-16C28,-16 849,-16 849,-16 855,-16 861,-22 861,-28 861,-28 861,-1136 861,-1136 861,-1142 855,-1148 849,-1148 849,-1148 28,-1148 28,-1148 22,-1148 16,-1142 16,-1136 16,-1136 16,-28 16,-28 16,-22 22,-16 28,-16"/>
<text text-anchor="middle" x="438.5" y="-1135.2" font-family="Times New Roman,serif" font-size="11.00" fill="gray">phpWTL</text>
</g>
<g id="clust3" class="cluster"><title>cluster_\phpWTL\LogWriter</title>
<path fill="none" stroke="gray" d="M207.5,-824C207.5,-824 837,-824 837,-824 843,-824 849,-830 849,-836 849,-836 849,-1108 849,-1108 849,-1114 843,-1120 837,-1120 837,-1120 207.5,-1120 207.5,-1120 201.5,-1120 195.5,-1114 195.5,-1108 195.5,-1108 195.5,-836 195.5,-836 195.5,-830 201.5,-824 207.5,-824"/>
<text text-anchor="middle" x="522.25" y="-1107.2" font-family="Times New Roman,serif" font-size="11.00" fill="gray">LogWriter</text>
</g>
<g id="clust4" class="cluster"><title>cluster_\phpWTL\LogWriter\DBLW</title>
<path fill="none" stroke="gray" d="M424.5,-966C424.5,-966 588.5,-966 588.5,-966 594.5,-966 600.5,-972 600.5,-978 600.5,-978 600.5,-1080 600.5,-1080 600.5,-1086 594.5,-1092 588.5,-1092 588.5,-1092 424.5,-1092 424.5,-1092 418.5,-1092 412.5,-1086 412.5,-1080 412.5,-1080 412.5,-978 412.5,-978 412.5,-972 418.5,-966 424.5,-966"/>
<text text-anchor="middle" x="506.5" y="-1079.2" font-family="Times New Roman,serif" font-size="11.00" fill="gray">DBLW</text>
</g>
<g id="clust5" class="cluster"><title>cluster_\phpWTL\LogWriter\FLW</title>
<path fill="none" stroke="gray" d="M458.5,-832C458.5,-832 829,-832 829,-832 835,-832 841,-838 841,-844 841,-844 841,-946 841,-946 841,-952 835,-958 829,-958 829,-958 458.5,-958 458.5,-958 452.5,-958 446.5,-952 446.5,-946 446.5,-946 446.5,-844 446.5,-844 446.5,-838 452.5,-832 458.5,-832"/>
<text text-anchor="middle" x="643.75" y="-945.2" font-family="Times New Roman,serif" font-size="11.00" fill="gray">FLW</text>
</g>
<!-- \\phpWTL\\LogWriter\\DBLW\\DatabaseLogWriterHelper -->
<g id="node1" class="node"><title>\\phpWTL\\LogWriter\\DBLW\\DatabaseLogWriterHelper</title>
<polygon fill="none" stroke="black" points="592.5,-1064 420.5,-1064 420.5,-1028 592.5,-1028 592.5,-1064"/>
<text text-anchor="middle" x="506.5" y="-1043.2" font-family="Courier,monospace" font-size="11.00">DatabaseLogWriterHelper</text>
</g>
<!-- \\phpWTL\\LogWriter\\DBLW\\DatabaseLogWriter -->
<g id="node2" class="node"><title>\\phpWTL\\LogWriter\\DBLW\\DatabaseLogWriter</title>
<polygon fill="none" stroke="black" points="572,-1010 441,-1010 441,-974 572,-974 572,-1010"/>
<text text-anchor="middle" x="506.5" y="-989.2" font-family="Courier,monospace" font-size="11.00">DatabaseLogWriter</text>
</g>
<!-- \\phpWTL\\LogWriter\\iBasicLogWriter -->
<g id="node6" class="node"><title>\\phpWTL\\LogWriter\\iBasicLogWriter</title>
<polygon fill="none" stroke="black" points="321.5,-956 203.5,-956 203.5,-920 321.5,-920 321.5,-956"/>
<text text-anchor="middle" x="262.5" y="-935.2" font-family="Courier,monospace" font-size="11.00">iBasicLogWriter</text>
</g>
<!-- \\phpWTL\\LogWriter\\DBLW\\DatabaseLogWriter&#45;&gt;\\phpWTL\\LogWriter\\iBasicLogWriter -->
<g id="edge4" class="edge"><title>\\phpWTL\\LogWriter\\DBLW\\DatabaseLogWriter&#45;&gt;\\phpWTL\\LogWriter\\iBasicLogWriter</title>
<path fill="none" stroke="black" stroke-dasharray="1,5" d="M440.966,-977.6C407.195,-970.064 365.86,-960.841 331.581,-953.192"/>
<polygon fill="none" stroke="black" points="332.172,-949.737 321.65,-950.976 330.647,-956.569 332.172,-949.737"/>
</g>
<!-- \\phpWTL\\LogWriter\\FLW\\FileLogWriter -->
<g id="node3" class="node"><title>\\phpWTL\\LogWriter\\FLW\\FileLogWriter</title>
<polygon fill="none" stroke="black" points="558.5,-903 454.5,-903 454.5,-867 558.5,-867 558.5,-903"/>
<text text-anchor="middle" x="506.5" y="-882.2" font-family="Courier,monospace" font-size="11.00">FileLogWriter</text>
</g>
<!-- \\phpWTL\\LogWriter\\FLW\\FileLogWriter&#45;&gt;\\phpWTL\\LogWriter\\iBasicLogWriter -->
<g id="edge3" class="edge"><title>\\phpWTL\\LogWriter\\FLW\\FileLogWriter&#45;&gt;\\phpWTL\\LogWriter\\iBasicLogWriter</title>
<path fill="none" stroke="black" stroke-dasharray="1,5" d="M454.474,-896.175C418.831,-903.981 370.845,-914.49 331.893,-923.021"/>
<polygon fill="none" stroke="black" points="330.701,-919.699 321.682,-925.258 332.199,-926.537 330.701,-919.699"/>
</g>
<!-- \\phpWTL\\LogWriter\\FLW\\FileLogWriterHelper -->
<g id="node4" class="node"><title>\\phpWTL\\LogWriter\\FLW\\FileLogWriterHelper</title>
<polygon fill="none" stroke="black" points="833,-930 688,-930 688,-894 833,-894 833,-930"/>
<text text-anchor="middle" x="760.5" y="-909.2" font-family="Courier,monospace" font-size="11.00">FileLogWriterHelper</text>
</g>
<!-- \\phpWTL\\LogWriter\\FLW\\FileLogWriterExt -->
<g id="node5" class="node"><title>\\phpWTL\\LogWriter\\FLW\\FileLogWriterExt</title>
<polygon fill="none" stroke="black" points="823,-876 698,-876 698,-840 823,-840 823,-876"/>
<text text-anchor="middle" x="760.5" y="-855.2" font-family="Courier,monospace" font-size="11.00">FileLogWriterExt</text>
</g>
<!-- \\phpWTL\\LogWriter\\FLW\\FileLogWriterExt&#45;&gt;\\phpWTL\\LogWriter\\FLW\\FileLogWriter -->
<g id="edge19" class="edge"><title>\\phpWTL\\LogWriter\\FLW\\FileLogWriterExt&#45;&gt;\\phpWTL\\LogWriter\\FLW\\FileLogWriter</title>
<path fill="none" stroke="black" d="M697.854,-864.605C658.579,-868.813 607.902,-874.243 568.712,-878.442"/>
<polygon fill="none" stroke="black" points="568.324,-874.963 558.753,-879.509 569.069,-881.923 568.324,-874.963"/>
</g>
<!-- \\phpWTL\\aSingleton -->
<g id="node7" class="node"><title>\\phpWTL\\aSingleton</title>
<polygon fill="none" stroke="black" points="108,-492 24,-492 24,-456 108,-456 108,-492"/>
<text text-anchor="start" x="32" y="-477.2" font-family="Courier,monospace" font-size="11.00">«abstract»</text>
<text text-anchor="start" x="32" y="-465.2" font-family="Courier,monospace" font-size="11.00">aSingleton</text>
</g>
<!-- \\phpWTL\\aBasicDataFormatter -->
<g id="node8" class="node"><title>\\phpWTL\\aBasicDataFormatter</title>
<polygon fill="none" stroke="black" points="335,-249 190,-249 190,-213 335,-213 335,-249"/>
<text text-anchor="start" x="228.5" y="-234.2" font-family="Courier,monospace" font-size="11.00">«abstract»</text>
<text text-anchor="start" x="198" y="-222.2" font-family="Courier,monospace" font-size="11.00">aBasicDataFormatter</text>
</g>
<!-- \\phpWTL\\aBasicDataFormatter&#45;&gt;\\phpWTL\\aSingleton -->
<g id="edge1" class="edge"><title>\\phpWTL\\aBasicDataFormatter&#45;&gt;\\phpWTL\\aSingleton</title>
<path fill="none" stroke="black" d="M246.881,-249.264C212.723,-291.939 127.578,-398.316 87.9292,-447.852"/>
<polygon fill="none" stroke="black" points="85.0399,-445.861 81.5234,-455.855 90.5049,-450.235 85.0399,-445.861"/>
</g>
<!-- \\phpWTL\\PhpAppDataRetriever -->
<g id="node9" class="node"><title>\\phpWTL\\PhpAppDataRetriever</title>
<polygon fill="none" stroke="black" points="579,-330 434,-330 434,-294 579,-294 579,-330"/>
<text text-anchor="middle" x="506.5" y="-309.2" font-family="Courier,monospace" font-size="11.00">PhpAppDataRetriever</text>
</g>
<!-- \\phpWTL\\aBasicDataRetriever -->
<g id="node17" class="node"><title>\\phpWTL\\aBasicDataRetriever</title>
<polygon fill="none" stroke="black" points="335,-411 190,-411 190,-375 335,-375 335,-411"/>
<text text-anchor="start" x="228.5" y="-396.2" font-family="Courier,monospace" font-size="11.00">«abstract»</text>
<text text-anchor="start" x="198" y="-384.2" font-family="Courier,monospace" font-size="11.00">aBasicDataRetriever</text>
</g>
<!-- \\phpWTL\\PhpAppDataRetriever&#45;&gt;\\phpWTL\\aBasicDataRetriever -->
<g id="edge2" class="edge"><title>\\phpWTL\\PhpAppDataRetriever&#45;&gt;\\phpWTL\\aBasicDataRetriever</title>
<path fill="none" stroke="black" d="M441.296,-330.046C431.615,-332.939 421.771,-335.978 412.5,-339 381.845,-348.993 348.034,-361.152 320.38,-371.401"/>
<polygon fill="none" stroke="black" points="319.022,-368.172 310.87,-374.939 321.463,-374.732 319.022,-368.172"/>
</g>
<!-- \\phpWTL\\PhpAppLoggerHelper -->
<g id="node10" class="node"><title>\\phpWTL\\PhpAppLoggerHelper</title>
<polygon fill="none" stroke="black" points="829.5,-816 691.5,-816 691.5,-780 829.5,-780 829.5,-816"/>
<text text-anchor="middle" x="760.5" y="-795.2" font-family="Courier,monospace" font-size="11.00">PhpAppLoggerHelper</text>
</g>
<!-- \\phpWTL\\ExtendedDRP -->
<g id="node11" class="node"><title>\\phpWTL\\ExtendedDRP</title>
<polygon fill="none" stroke="black" points="806,-762 715,-762 715,-726 806,-726 806,-762"/>
<text text-anchor="middle" x="760.5" y="-741.2" font-family="Courier,monospace" font-size="11.00">ExtendedDRP</text>
</g>
<!-- \\phpWTL\\CombinedLogger -->
<g id="node12" class="node"><title>\\phpWTL\\CombinedLogger</title>
<polygon fill="none" stroke="black" points="816,-654 705,-654 705,-618 816,-618 816,-654"/>
<text text-anchor="middle" x="760.5" y="-633.2" font-family="Courier,monospace" font-size="11.00">CombinedLogger</text>
</g>
<!-- \\phpWTL\\CommonLogger -->
<g id="node29" class="node"><title>\\phpWTL\\CommonLogger</title>
<polygon fill="none" stroke="black" points="555.5,-546 457.5,-546 457.5,-510 555.5,-510 555.5,-546"/>
<text text-anchor="middle" x="506.5" y="-525.2" font-family="Courier,monospace" font-size="11.00">CommonLogger</text>
</g>
<!-- \\phpWTL\\CombinedLogger&#45;&gt;\\phpWTL\\CommonLogger -->
<g id="edge5" class="edge"><title>\\phpWTL\\CombinedLogger&#45;&gt;\\phpWTL\\CommonLogger</title>
<path fill="none" stroke="black" d="M704.919,-623.659C692.422,-619.816 679.454,-614.975 668,-609 633.938,-591.23 634.601,-572.695 600.5,-555 589.657,-549.374 577.478,-544.766 565.595,-541.053"/>
<polygon fill="none" stroke="black" points="566.299,-537.611 555.717,-538.14 564.319,-544.326 566.299,-537.611"/>
</g>
<!-- \\phpWTL\\PhpAppLogger -->
<g id="node13" class="node"><title>\\phpWTL\\PhpAppLogger</title>
<polygon fill="none" stroke="black" points="555.5,-654 457.5,-654 457.5,-618 555.5,-618 555.5,-654"/>
<text text-anchor="middle" x="506.5" y="-633.2" font-family="Courier,monospace" font-size="11.00">PhpAppLogger</text>
</g>
<!-- \\phpWTL\\aBasicLogger -->
<g id="node32" class="node"><title>\\phpWTL\\aBasicLogger</title>
<polygon fill="none" stroke="black" points="311.5,-573 213.5,-573 213.5,-537 311.5,-537 311.5,-573"/>
<text text-anchor="start" x="228.5" y="-558.2" font-family="Courier,monospace" font-size="11.00">«abstract»</text>
<text text-anchor="start" x="221.5" y="-546.2" font-family="Courier,monospace" font-size="11.00">aBasicLogger</text>
</g>
<!-- \\phpWTL\\PhpAppLogger&#45;&gt;\\phpWTL\\aBasicLogger -->
<g id="edge6" class="edge"><title>\\phpWTL\\PhpAppLogger&#45;&gt;\\phpWTL\\aBasicLogger</title>
<path fill="none" stroke="black" d="M457.048,-622.581C442.652,-618.419 426.886,-613.69 412.5,-609 381.845,-599.007 348.034,-586.848 320.38,-576.599"/>
<polygon fill="none" stroke="black" points="321.463,-573.268 310.87,-573.061 319.022,-579.828 321.463,-573.268"/>
</g>
<!-- \\phpWTL\\ExtendedDataFormatter -->
<g id="node14" class="node"><title>\\phpWTL\\ExtendedDataFormatter</title>
<polygon fill="none" stroke="black" points="585.5,-222 427.5,-222 427.5,-186 585.5,-186 585.5,-222"/>
<text text-anchor="middle" x="506.5" y="-201.2" font-family="Courier,monospace" font-size="11.00">ExtendedDataFormatter</text>
</g>
<!-- \\phpWTL\\ExtendedDataFormatter&#45;&gt;\\phpWTL\\aBasicDataFormatter -->
<g id="edge7" class="edge"><title>\\phpWTL\\ExtendedDataFormatter&#45;&gt;\\phpWTL\\aBasicDataFormatter</title>
<path fill="none" stroke="black" d="M427.264,-212.729C401.059,-215.652 371.784,-218.919 345.314,-221.872"/>
<polygon fill="none" stroke="black" points="344.869,-218.4 335.319,-222.987 345.645,-225.357 344.869,-218.4"/>
</g>
<!-- \\phpWTL\\GenericDataValidator -->
<g id="node15" class="node"><title>\\phpWTL\\GenericDataValidator</title>
<polygon fill="none" stroke="black" points="582.5,-492 430.5,-492 430.5,-456 582.5,-456 582.5,-492"/>
<text text-anchor="middle" x="506.5" y="-471.2" font-family="Courier,monospace" font-size="11.00">GenericDataValidator</text>
</g>
<!-- \\phpWTL\\aBasicDataValidator -->
<g id="node23" class="node"><title>\\phpWTL\\aBasicDataValidator</title>
<polygon fill="none" stroke="black" points="335,-492 190,-492 190,-456 335,-456 335,-492"/>
<text text-anchor="start" x="228.5" y="-477.2" font-family="Courier,monospace" font-size="11.00">«abstract»</text>
<text text-anchor="start" x="198" y="-465.2" font-family="Courier,monospace" font-size="11.00">aBasicDataValidator</text>
</g>
<!-- \\phpWTL\\GenericDataValidator&#45;&gt;\\phpWTL\\aBasicDataValidator -->
<g id="edge8" class="edge"><title>\\phpWTL\\GenericDataValidator&#45;&gt;\\phpWTL\\aBasicDataValidator</title>
<path fill="none" stroke="black" d="M430.256,-474C403.435,-474 373.097,-474 345.72,-474"/>
<polygon fill="none" stroke="black" points="345.386,-470.5 335.386,-474 345.386,-477.5 345.386,-470.5"/>
</g>
<!-- \\phpWTL\\CombinedFormatDescriptor -->
<g id="node16" class="node"><title>\\phpWTL\\CombinedFormatDescriptor</title>
<polygon fill="none" stroke="black" points="850,-708 671,-708 671,-672 850,-672 850,-708"/>
<text text-anchor="middle" x="760.5" y="-687.2" font-family="Courier,monospace" font-size="11.00">CombinedFormatDescriptor</text>
</g>
<!-- \\phpWTL\\CommonFormatDescriptor -->
<g id="node28" class="node"><title>\\phpWTL\\CommonFormatDescriptor</title>
<polygon fill="none" stroke="black" points="589,-708 424,-708 424,-672 589,-672 589,-708"/>
<text text-anchor="middle" x="506.5" y="-687.2" font-family="Courier,monospace" font-size="11.00">CommonFormatDescriptor</text>
</g>
<!-- \\phpWTL\\CombinedFormatDescriptor&#45;&gt;\\phpWTL\\CommonFormatDescriptor -->
<g id="edge9" class="edge"><title>\\phpWTL\\CombinedFormatDescriptor&#45;&gt;\\phpWTL\\CommonFormatDescriptor</title>
<path fill="none" stroke="black" d="M670.654,-690C647.571,-690 622.662,-690 599.424,-690"/>
<polygon fill="none" stroke="black" points="599.229,-686.5 589.229,-690 599.229,-693.5 599.229,-686.5"/>
</g>
<!-- \\phpWTL\\aBasicDataRetriever&#45;&gt;\\phpWTL\\aSingleton -->
<g id="edge10" class="edge"><title>\\phpWTL\\aBasicDataRetriever&#45;&gt;\\phpWTL\\aSingleton</title>
<path fill="none" stroke="black" d="M217.85,-411.178C188.11,-423.563 148.645,-439.999 117.54,-452.953"/>
<polygon fill="none" stroke="black" points="116.061,-449.777 108.175,-456.853 118.752,-456.239 116.061,-449.777"/>
</g>
<!-- \\phpWTL\\phpWTL -->
<g id="node18" class="node"><title>\\phpWTL\\phpWTL</title>
<polygon fill="none" stroke="black" points="789,-600 732,-600 732,-564 789,-564 789,-600"/>
<text text-anchor="middle" x="760.5" y="-579.2" font-family="Courier,monospace" font-size="11.00">phpWTL</text>
</g>
<!-- \\phpWTL\\LoggerContent -->
<g id="node19" class="node"><title>\\phpWTL\\LoggerContent</title>
<polygon fill="none" stroke="black" points="812.5,-546 708.5,-546 708.5,-510 812.5,-510 812.5,-546"/>
<text text-anchor="middle" x="760.5" y="-525.2" font-family="Courier,monospace" font-size="11.00">LoggerContent</text>
</g>
<!-- \\phpWTL\\ExtendedDataRetriever -->
<g id="node20" class="node"><title>\\phpWTL\\ExtendedDataRetriever</title>
<polygon fill="none" stroke="black" points="585.5,-438 427.5,-438 427.5,-402 585.5,-402 585.5,-438"/>
<text text-anchor="middle" x="506.5" y="-417.2" font-family="Courier,monospace" font-size="11.00">ExtendedDataRetriever</text>
</g>
<!-- \\phpWTL\\ExtendedDataRetriever&#45;&gt;\\phpWTL\\aBasicDataRetriever -->
<g id="edge11" class="edge"><title>\\phpWTL\\ExtendedDataRetriever&#45;&gt;\\phpWTL\\aBasicDataRetriever</title>
<path fill="none" stroke="black" d="M427.264,-411.271C401.059,-408.348 371.784,-405.081 345.314,-402.128"/>
<polygon fill="none" stroke="black" points="345.645,-398.643 335.319,-401.013 344.869,-405.6 345.645,-398.643"/>
</g>
<!-- \\phpWTL\\LogBufferHelper -->
<g id="node21" class="node"><title>\\phpWTL\\LogBufferHelper</title>
<polygon fill="none" stroke="black" points="819.5,-492 701.5,-492 701.5,-456 819.5,-456 819.5,-492"/>
<text text-anchor="middle" x="760.5" y="-471.2" font-family="Courier,monospace" font-size="11.00">LogBufferHelper</text>
</g>
<!-- \\phpWTL\\LogBuffer -->
<g id="node22" class="node"><title>\\phpWTL\\LogBuffer</title>
<polygon fill="none" stroke="black" points="799,-438 722,-438 722,-402 799,-402 799,-438"/>
<text text-anchor="middle" x="760.5" y="-417.2" font-family="Courier,monospace" font-size="11.00">LogBuffer</text>
</g>
<!-- \\phpWTL\\aBasicDataValidator&#45;&gt;\\phpWTL\\aSingleton -->
<g id="edge12" class="edge"><title>\\phpWTL\\aBasicDataValidator&#45;&gt;\\phpWTL\\aSingleton</title>
<path fill="none" stroke="black" d="M189.904,-474C166.153,-474 140.203,-474 118.294,-474"/>
<polygon fill="none" stroke="black" points="118.214,-470.5 108.214,-474 118.214,-477.5 118.214,-470.5"/>
</g>
<!-- \\phpWTL\\CommonDataFormatter -->
<g id="node24" class="node"><title>\\phpWTL\\CommonDataFormatter</title>
<polygon fill="none" stroke="black" points="579,-276 434,-276 434,-240 579,-240 579,-276"/>
<text text-anchor="middle" x="506.5" y="-255.2" font-family="Courier,monospace" font-size="11.00">CommonDataFormatter</text>
</g>
<!-- \\phpWTL\\CommonDataFormatter&#45;&gt;\\phpWTL\\aBasicDataFormatter -->
<g id="edge13" class="edge"><title>\\phpWTL\\CommonDataFormatter&#45;&gt;\\phpWTL\\aBasicDataFormatter</title>
<path fill="none" stroke="black" d="M433.874,-250.009C406.072,-246.907 374.071,-243.336 345.364,-240.134"/>
<polygon fill="none" stroke="black" points="345.687,-236.648 335.36,-239.017 344.91,-243.605 345.687,-236.648"/>
</g>
<!-- \\phpWTL\\aBasicFormatDescriptor -->
<g id="node25" class="node"><title>\\phpWTL\\aBasicFormatDescriptor</title>
<polygon fill="none" stroke="black" points="345,-735 180,-735 180,-699 345,-699 345,-735"/>
<text text-anchor="start" x="228.5" y="-720.2" font-family="Courier,monospace" font-size="11.00">«abstract»</text>
<text text-anchor="start" x="188" y="-708.2" font-family="Courier,monospace" font-size="11.00">aBasicFormatDescriptor</text>
</g>
<!-- \\phpWTL\\aBasicFormatDescriptor&#45;&gt;\\phpWTL\\aSingleton -->
<g id="edge14" class="edge"><title>\\phpWTL\\aBasicFormatDescriptor&#45;&gt;\\phpWTL\\aSingleton</title>
<path fill="none" stroke="black" d="M246.881,-698.736C212.723,-656.061 127.578,-549.684 87.9292,-500.148"/>
<polygon fill="none" stroke="black" points="90.5049,-497.765 81.5234,-492.145 85.0399,-502.139 90.5049,-497.765"/>
</g>
<!-- \\phpWTL\\CombinedDataFormatter -->
<g id="node26" class="node"><title>\\phpWTL\\CombinedDataFormatter</title>
<polygon fill="none" stroke="black" points="839.5,-276 681.5,-276 681.5,-240 839.5,-240 839.5,-276"/>
<text text-anchor="middle" x="760.5" y="-255.2" font-family="Courier,monospace" font-size="11.00">CombinedDataFormatter</text>
</g>
<!-- \\phpWTL\\CombinedDataFormatter&#45;&gt;\\phpWTL\\CommonDataFormatter -->
<g id="edge15" class="edge"><title>\\phpWTL\\CombinedDataFormatter&#45;&gt;\\phpWTL\\CommonDataFormatter</title>
<path fill="none" stroke="black" d="M681.491,-258C652.269,-258 618.996,-258 589.429,-258"/>
<polygon fill="none" stroke="black" points="589.138,-254.5 579.138,-258 589.138,-261.5 589.138,-254.5"/>
</g>
<!-- \\phpWTL\\PhpAppDataFormatter -->
<g id="node27" class="node"><title>\\phpWTL\\PhpAppDataFormatter</title>
<polygon fill="none" stroke="black" points="579,-168 434,-168 434,-132 579,-132 579,-168"/>
<text text-anchor="middle" x="506.5" y="-147.2" font-family="Courier,monospace" font-size="11.00">PhpAppDataFormatter</text>
</g>
<!-- \\phpWTL\\PhpAppDataFormatter&#45;&gt;\\phpWTL\\aBasicDataFormatter -->
<g id="edge16" class="edge"><title>\\phpWTL\\PhpAppDataFormatter&#45;&gt;\\phpWTL\\aBasicDataFormatter</title>
<path fill="none" stroke="black" d="M441.296,-168.046C431.615,-170.939 421.771,-173.978 412.5,-177 381.845,-186.993 348.034,-199.152 320.38,-209.401"/>
<polygon fill="none" stroke="black" points="319.022,-206.172 310.87,-212.939 321.463,-212.732 319.022,-206.172"/>
</g>
<!-- \\phpWTL\\CommonFormatDescriptor&#45;&gt;\\phpWTL\\aBasicFormatDescriptor -->
<g id="edge17" class="edge"><title>\\phpWTL\\CommonFormatDescriptor&#45;&gt;\\phpWTL\\aBasicFormatDescriptor</title>
<path fill="none" stroke="black" d="M423.907,-699.103C401.894,-701.559 377.926,-704.233 355.391,-706.748"/>
<polygon fill="none" stroke="black" points="354.7,-703.303 345.15,-707.89 355.477,-710.26 354.7,-703.303"/>
</g>
<!-- \\phpWTL\\CommonLogger&#45;&gt;\\phpWTL\\aBasicLogger -->
<g id="edge18" class="edge"><title>\\phpWTL\\CommonLogger&#45;&gt;\\phpWTL\\aBasicLogger</title>
<path fill="none" stroke="black" d="M457.399,-533.367C418.305,-537.728 363.026,-543.896 321.487,-548.53"/>
<polygon fill="none" stroke="black" points="321.06,-545.056 311.51,-549.644 321.836,-552.013 321.06,-545.056"/>
</g>
<!-- \\phpWTL\\CommonCombinedDRP -->
<g id="node30" class="node"><title>\\phpWTL\\CommonCombinedDRP</title>
<polygon fill="none" stroke="black" points="826,-330 695,-330 695,-294 826,-294 826,-330"/>
<text text-anchor="middle" x="760.5" y="-309.2" font-family="Courier,monospace" font-size="11.00">CommonCombinedDRP</text>
</g>
<!-- \\phpWTL\\CommonDataRetriever -->
<g id="node31" class="node"><title>\\phpWTL\\CommonDataRetriever</title>
<polygon fill="none" stroke="black" points="579,-384 434,-384 434,-348 579,-348 579,-384"/>
<text text-anchor="middle" x="506.5" y="-363.2" font-family="Courier,monospace" font-size="11.00">CommonDataRetriever</text>
</g>
<!-- \\phpWTL\\CommonDataRetriever&#45;&gt;\\phpWTL\\aBasicDataRetriever -->
<g id="edge20" class="edge"><title>\\phpWTL\\CommonDataRetriever&#45;&gt;\\phpWTL\\aBasicDataRetriever</title>
<path fill="none" stroke="black" d="M433.874,-373.991C406.072,-377.093 374.071,-380.664 345.364,-383.866"/>
<polygon fill="none" stroke="black" points="344.91,-380.395 335.36,-384.983 345.687,-387.352 344.91,-380.395"/>
</g>
<!-- \\phpWTL\\aBasicLogger&#45;&gt;\\phpWTL\\aSingleton -->
<g id="edge21" class="edge"><title>\\phpWTL\\aBasicLogger&#45;&gt;\\phpWTL\\aSingleton</title>
<path fill="none" stroke="black" d="M217.85,-536.822C188.11,-524.437 148.645,-508.001 117.54,-495.047"/>
<polygon fill="none" stroke="black" points="118.752,-491.761 108.175,-491.147 116.061,-498.223 118.752,-491.761"/>
</g>
<!-- \\phpWTL\\PhpAppFormatDescriptor -->
<g id="node33" class="node"><title>\\phpWTL\\PhpAppFormatDescriptor</title>
<polygon fill="none" stroke="black" points="589,-816 424,-816 424,-780 589,-780 589,-816"/>
<text text-anchor="middle" x="506.5" y="-795.2" font-family="Courier,monospace" font-size="11.00">PhpAppFormatDescriptor</text>
</g>
<!-- \\phpWTL\\PhpAppFormatDescriptor&#45;&gt;\\phpWTL\\aBasicFormatDescriptor -->
<g id="edge22" class="edge"><title>\\phpWTL\\PhpAppFormatDescriptor&#45;&gt;\\phpWTL\\aBasicFormatDescriptor</title>
<path fill="none" stroke="black" d="M441.296,-779.954C431.615,-777.061 421.771,-774.022 412.5,-771 381.845,-761.007 348.034,-748.848 320.38,-738.599"/>
<polygon fill="none" stroke="black" points="321.463,-735.268 310.87,-735.061 319.022,-741.828 321.463,-735.268"/>
</g>
<!-- \\phpWTL\\CombinedDataRetriever -->
<g id="node34" class="node"><title>\\phpWTL\\CombinedDataRetriever</title>
<polygon fill="none" stroke="black" points="839.5,-384 681.5,-384 681.5,-348 839.5,-348 839.5,-384"/>
<text text-anchor="middle" x="760.5" y="-363.2" font-family="Courier,monospace" font-size="11.00">CombinedDataRetriever</text>
</g>
<!-- \\phpWTL\\CombinedDataRetriever&#45;&gt;\\phpWTL\\CommonDataRetriever -->
<g id="edge23" class="edge"><title>\\phpWTL\\CombinedDataRetriever&#45;&gt;\\phpWTL\\CommonDataRetriever</title>
<path fill="none" stroke="black" d="M681.491,-366C652.269,-366 618.996,-366 589.429,-366"/>
<polygon fill="none" stroke="black" points="589.138,-362.5 579.138,-366 589.138,-369.5 589.138,-362.5"/>
</g>
<!-- \\phpWTL\\ExtendedFormatDescriptor -->
<g id="node35" class="node"><title>\\phpWTL\\ExtendedFormatDescriptor</title>
<polygon fill="none" stroke="black" points="596,-762 417,-762 417,-726 596,-726 596,-762"/>
<text text-anchor="middle" x="506.5" y="-741.2" font-family="Courier,monospace" font-size="11.00">ExtendedFormatDescriptor</text>
</g>
<!-- \\phpWTL\\ExtendedFormatDescriptor&#45;&gt;\\phpWTL\\aBasicFormatDescriptor -->
<g id="edge24" class="edge"><title>\\phpWTL\\ExtendedFormatDescriptor&#45;&gt;\\phpWTL\\aBasicFormatDescriptor</title>
<path fill="none" stroke="black" d="M416.762,-734.1C396.683,-731.859 375.325,-729.476 355.128,-727.223"/>
<polygon fill="none" stroke="black" points="355.33,-723.724 345.003,-726.093 354.553,-730.681 355.33,-723.724"/>
</g>
<!-- \\phpWTL\\DescriptorField -->
<g id="node36" class="node"><title>\\phpWTL\\DescriptorField</title>
<polygon fill="none" stroke="black" points="819.5,-222 701.5,-222 701.5,-186 819.5,-186 819.5,-222"/>
<text text-anchor="middle" x="760.5" y="-201.2" font-family="Courier,monospace" font-size="11.00">DescriptorField</text>
</g>
<!-- \\phpWTL\\ExtendedLogger -->
<g id="node37" class="node"><title>\\phpWTL\\ExtendedLogger</title>
<polygon fill="none" stroke="black" points="562,-600 451,-600 451,-564 562,-564 562,-600"/>
<text text-anchor="middle" x="506.5" y="-579.2" font-family="Courier,monospace" font-size="11.00">ExtendedLogger</text>
</g>
<!-- \\phpWTL\\ExtendedLogger&#45;&gt;\\phpWTL\\aBasicLogger -->
<g id="edge25" class="edge"><title>\\phpWTL\\ExtendedLogger&#45;&gt;\\phpWTL\\aBasicLogger</title>
<path fill="none" stroke="black" d="M450.889,-575.907C412.416,-571.615 360.975,-565.875 321.723,-561.496"/>
<polygon fill="none" stroke="black" points="322.092,-558.016 311.766,-560.385 321.316,-564.972 322.092,-558.016"/>
</g>
<!-- \\phpWTL\\DataRetrievalPolicy -->
<g id="node38" class="node"><title>\\phpWTL\\DataRetrievalPolicy</title>
<polygon fill="none" stroke="black" points="833,-168 688,-168 688,-132 833,-132 833,-168"/>
<text text-anchor="middle" x="760.5" y="-147.2" font-family="Courier,monospace" font-size="11.00">DataRetrievalPolicy</text>
</g>
<!-- \\phpWTL\\DataRetrievalPolicyHelper -->
<g id="node39" class="node"><title>\\phpWTL\\DataRetrievalPolicyHelper</title>
<polygon fill="none" stroke="black" points="853,-114 668,-114 668,-78 853,-78 853,-114"/>
<text text-anchor="middle" x="760.5" y="-93.2" font-family="Courier,monospace" font-size="11.00">DataRetrievalPolicyHelper</text>
</g>
<!-- \\phpWTL\\FormatDescriptorHelper -->
<g id="node40" class="node"><title>\\phpWTL\\FormatDescriptorHelper</title>
<polygon fill="none" stroke="black" points="843,-60 678,-60 678,-24 843,-24 843,-60"/>
<text text-anchor="middle" x="760.5" y="-39.2" font-family="Courier,monospace" font-size="11.00">FormatDescriptorHelper</text>
</g>
</g>
</svg>
