<?xml version="1.0" encoding="UTF-8" standalone="no"?>
<!DOCTYPE svg PUBLIC "-//W3C//DTD SVG 1.1//EN"
 "http://www.w3.org/Graphics/SVG/1.1/DTD/svg11.dtd">
<!-- Generated by graphviz version 2.38.0 (20140413.2041)
 -->
<!-- Title: G Pages: 1 -->
<svg width="885pt" height="1436pt"
 viewBox="0.00 0.00 885.00 1436.00" xmlns="http://www.w3.org/2000/svg" xmlns:xlink="http://www.w3.org/1999/xlink">
<g id="graph0" class="graph" transform="scale(1 1) rotate(0) translate(4 1432)">
<title>G</title>
<polygon fill="white" stroke="none" points="-4,4 -4,-1432 881,-1432 881,4 -4,4"/>
<g id="clust1" class="cluster"><title>cluster_Global</title>
<path fill="none" stroke="gray" d="M20,-8C20,-8 857,-8 857,-8 863,-8 869,-14 869,-20 869,-20 869,-1408 869,-1408 869,-1414 863,-1420 857,-1420 857,-1420 20,-1420 20,-1420 14,-1420 8,-1414 8,-1408 8,-1408 8,-20 8,-20 8,-14 14,-8 20,-8"/>
<text text-anchor="middle" x="438.5" y="-1407.2" font-family="Times New Roman,serif" font-size="11.00" fill="gray">Global</text>
</g>
<g id="clust2" class="cluster"><title>cluster_\phpWTL</title>
<path fill="none" stroke="gray" d="M28,-16C28,-16 849,-16 849,-16 855,-16 861,-22 861,-28 861,-28 861,-1380 861,-1380 861,-1386 855,-1392 849,-1392 849,-1392 28,-1392 28,-1392 22,-1392 16,-1386 16,-1380 16,-1380 16,-28 16,-28 16,-22 22,-16 28,-16"/>
<text text-anchor="middle" x="438.5" y="-1379.2" font-family="Times New Roman,serif" font-size="11.00" fill="gray">phpWTL</text>
</g>
<g id="clust3" class="cluster"><title>cluster_\phpWTL\LogWriter</title>
<path fill="none" stroke="gray" d="M207.5,-1068C207.5,-1068 837,-1068 837,-1068 843,-1068 849,-1074 849,-1080 849,-1080 849,-1352 849,-1352 849,-1358 843,-1364 837,-1364 837,-1364 207.5,-1364 207.5,-1364 201.5,-1364 195.5,-1358 195.5,-1352 195.5,-1352 195.5,-1080 195.5,-1080 195.5,-1074 201.5,-1068 207.5,-1068"/>
<text text-anchor="middle" x="522.25" y="-1351.2" font-family="Times New Roman,serif" font-size="11.00" fill="gray">LogWriter</text>
</g>
<g id="clust4" class="cluster"><title>cluster_\phpWTL\LogWriter\DBLW</title>
<path fill="none" stroke="gray" d="M424.5,-1210C424.5,-1210 588.5,-1210 588.5,-1210 594.5,-1210 600.5,-1216 600.5,-1222 600.5,-1222 600.5,-1324 600.5,-1324 600.5,-1330 594.5,-1336 588.5,-1336 588.5,-1336 424.5,-1336 424.5,-1336 418.5,-1336 412.5,-1330 412.5,-1324 412.5,-1324 412.5,-1222 412.5,-1222 412.5,-1216 418.5,-1210 424.5,-1210"/>
<text text-anchor="middle" x="506.5" y="-1323.2" font-family="Times New Roman,serif" font-size="11.00" fill="gray">DBLW</text>
</g>
<g id="clust5" class="cluster"><title>cluster_\phpWTL\LogWriter\FLW</title>
<path fill="none" stroke="gray" d="M458.5,-1076C458.5,-1076 829,-1076 829,-1076 835,-1076 841,-1082 841,-1088 841,-1088 841,-1190 841,-1190 841,-1196 835,-1202 829,-1202 829,-1202 458.5,-1202 458.5,-1202 452.5,-1202 446.5,-1196 446.5,-1190 446.5,-1190 446.5,-1088 446.5,-1088 446.5,-1082 452.5,-1076 458.5,-1076"/>
<text text-anchor="middle" x="643.75" y="-1189.2" font-family="Times New Roman,serif" font-size="11.00" fill="gray">FLW</text>
</g>
<g id="clust6" class="cluster"><title>cluster_\phpWTL\Tools</title>
<path fill="none" stroke="gray" d="M722.5,-772C722.5,-772 798.5,-772 798.5,-772 804.5,-772 810.5,-778 810.5,-784 810.5,-784 810.5,-1048 810.5,-1048 810.5,-1054 804.5,-1060 798.5,-1060 798.5,-1060 722.5,-1060 722.5,-1060 716.5,-1060 710.5,-1054 710.5,-1048 710.5,-1048 710.5,-784 710.5,-784 710.5,-778 716.5,-772 722.5,-772"/>
<text text-anchor="middle" x="760.5" y="-1047.2" font-family="Times New Roman,serif" font-size="11.00" fill="gray">Tools</text>
</g>
<!-- \\phpWTL\\LogWriter\\DBLW\\DatabaseLogWriterHelper -->
<g id="node1" class="node"><title>\\phpWTL\\LogWriter\\DBLW\\DatabaseLogWriterHelper</title>
<polygon fill="none" stroke="black" points="592.5,-1308 420.5,-1308 420.5,-1272 592.5,-1272 592.5,-1308"/>
<text text-anchor="middle" x="506.5" y="-1287.2" font-family="Courier,monospace" font-size="11.00">DatabaseLogWriterHelper</text>
</g>
<!-- \\phpWTL\\LogWriter\\DBLW\\DatabaseLogWriter -->
<g id="node2" class="node"><title>\\phpWTL\\LogWriter\\DBLW\\DatabaseLogWriter</title>
<polygon fill="none" stroke="black" points="572,-1254 441,-1254 441,-1218 572,-1218 572,-1254"/>
<text text-anchor="middle" x="506.5" y="-1233.2" font-family="Courier,monospace" font-size="11.00">DatabaseLogWriter</text>
</g>
<!-- \\phpWTL\\LogWriter\\iBasicLogWriter -->
<g id="node6" class="node"><title>\\phpWTL\\LogWriter\\iBasicLogWriter</title>
<polygon fill="none" stroke="black" points="321.5,-1200 203.5,-1200 203.5,-1164 321.5,-1164 321.5,-1200"/>
<text text-anchor="middle" x="262.5" y="-1179.2" font-family="Courier,monospace" font-size="11.00">iBasicLogWriter</text>
</g>
<!-- \\phpWTL\\LogWriter\\DBLW\\DatabaseLogWriter&#45;&gt;\\phpWTL\\LogWriter\\iBasicLogWriter -->
<g id="edge4" class="edge"><title>\\phpWTL\\LogWriter\\DBLW\\DatabaseLogWriter&#45;&gt;\\phpWTL\\LogWriter\\iBasicLogWriter</title>
<path fill="none" stroke="black" stroke-dasharray="1,5" d="M440.966,-1221.6C407.195,-1214.06 365.86,-1204.84 331.581,-1197.19"/>
<polygon fill="none" stroke="black" points="332.172,-1193.74 321.65,-1194.98 330.647,-1200.57 332.172,-1193.74"/>
</g>
<!-- \\phpWTL\\LogWriter\\FLW\\FileLogWriter -->
<g id="node3" class="node"><title>\\phpWTL\\LogWriter\\FLW\\FileLogWriter</title>
<polygon fill="none" stroke="black" points="558.5,-1147 454.5,-1147 454.5,-1111 558.5,-1111 558.5,-1147"/>
<text text-anchor="middle" x="506.5" y="-1126.2" font-family="Courier,monospace" font-size="11.00">FileLogWriter</text>
</g>
<!-- \\phpWTL\\LogWriter\\FLW\\FileLogWriter&#45;&gt;\\phpWTL\\LogWriter\\iBasicLogWriter -->
<g id="edge3" class="edge"><title>\\phpWTL\\LogWriter\\FLW\\FileLogWriter&#45;&gt;\\phpWTL\\LogWriter\\iBasicLogWriter</title>
<path fill="none" stroke="black" stroke-dasharray="1,5" d="M454.474,-1140.18C418.831,-1147.98 370.845,-1158.49 331.893,-1167.02"/>
<polygon fill="none" stroke="black" points="330.701,-1163.7 321.682,-1169.26 332.199,-1170.54 330.701,-1163.7"/>
</g>
<!-- \\phpWTL\\LogWriter\\FLW\\FileLogWriterHelper -->
<g id="node4" class="node"><title>\\phpWTL\\LogWriter\\FLW\\FileLogWriterHelper</title>
<polygon fill="none" stroke="black" points="833,-1174 688,-1174 688,-1138 833,-1138 833,-1174"/>
<text text-anchor="middle" x="760.5" y="-1153.2" font-family="Courier,monospace" font-size="11.00">FileLogWriterHelper</text>
</g>
<!-- \\phpWTL\\LogWriter\\FLW\\FileLogWriterExt -->
<g id="node5" class="node"><title>\\phpWTL\\LogWriter\\FLW\\FileLogWriterExt</title>
<polygon fill="none" stroke="black" points="823,-1120 698,-1120 698,-1084 823,-1084 823,-1120"/>
<text text-anchor="middle" x="760.5" y="-1099.2" font-family="Courier,monospace" font-size="11.00">FileLogWriterExt</text>
</g>
<!-- \\phpWTL\\LogWriter\\FLW\\FileLogWriterExt&#45;&gt;\\phpWTL\\LogWriter\\FLW\\FileLogWriter -->
<g id="edge19" class="edge"><title>\\phpWTL\\LogWriter\\FLW\\FileLogWriterExt&#45;&gt;\\phpWTL\\LogWriter\\FLW\\FileLogWriter</title>
<path fill="none" stroke="black" d="M697.854,-1108.6C658.579,-1112.81 607.902,-1118.24 568.712,-1122.44"/>
<polygon fill="none" stroke="black" points="568.324,-1118.96 558.753,-1123.51 569.069,-1125.92 568.324,-1118.96"/>
</g>
<!-- \\phpWTL\\Tools\\SALT -->
<g id="node7" class="node"><title>\\phpWTL\\Tools\\SALT</title>
<polygon fill="none" stroke="black" points="787.5,-1032 733.5,-1032 733.5,-996 787.5,-996 787.5,-1032"/>
<text text-anchor="middle" x="760.5" y="-1011.2" font-family="Courier,monospace" font-size="11.00">SALT</text>
</g>
<!-- \\phpWTL\\Tools\\PEPRHelper -->
<g id="node8" class="node"><title>\\phpWTL\\Tools\\PEPRHelper</title>
<polygon fill="none" stroke="black" points="802.5,-978 718.5,-978 718.5,-942 802.5,-942 802.5,-978"/>
<text text-anchor="middle" x="760.5" y="-957.2" font-family="Courier,monospace" font-size="11.00">PEPRHelper</text>
</g>
<!-- \\phpWTL\\Tools\\PEPR -->
<g id="node9" class="node"><title>\\phpWTL\\Tools\\PEPR</title>
<polygon fill="none" stroke="black" points="787.5,-924 733.5,-924 733.5,-888 787.5,-888 787.5,-924"/>
<text text-anchor="middle" x="760.5" y="-903.2" font-family="Courier,monospace" font-size="11.00">PEPR</text>
</g>
<!-- \\phpWTL\\Tools\\ipTools -->
<g id="node10" class="node"><title>\\phpWTL\\Tools\\ipTools</title>
<polygon fill="none" stroke="black" points="792.5,-870 728.5,-870 728.5,-834 792.5,-834 792.5,-870"/>
<text text-anchor="middle" x="760.5" y="-849.2" font-family="Courier,monospace" font-size="11.00">ipTools</text>
</g>
<!-- \\phpWTL\\Tools\\SALTHelper -->
<g id="node11" class="node"><title>\\phpWTL\\Tools\\SALTHelper</title>
<polygon fill="none" stroke="black" points="802.5,-816 718.5,-816 718.5,-780 802.5,-780 802.5,-816"/>
<text text-anchor="middle" x="760.5" y="-795.2" font-family="Courier,monospace" font-size="11.00">SALTHelper</text>
</g>
<!-- \\phpWTL\\aSingleton -->
<g id="node12" class="node"><title>\\phpWTL\\aSingleton</title>
<polygon fill="none" stroke="black" points="108,-492 24,-492 24,-456 108,-456 108,-492"/>
<text text-anchor="start" x="32" y="-477.2" font-family="Courier,monospace" font-size="11.00">«abstract»</text>
<text text-anchor="start" x="32" y="-465.2" font-family="Courier,monospace" font-size="11.00">aSingleton</text>
</g>
<!-- \\phpWTL\\aBasicDataFormatter -->
<g id="node13" class="node"><title>\\phpWTL\\aBasicDataFormatter</title>
<polygon fill="none" stroke="black" points="335,-249 190,-249 190,-213 335,-213 335,-249"/>
<text text-anchor="start" x="228.5" y="-234.2" font-family="Courier,monospace" font-size="11.00">«abstract»</text>
<text text-anchor="start" x="198" y="-222.2" font-family="Courier,monospace" font-size="11.00">aBasicDataFormatter</text>
</g>
<!-- \\phpWTL\\aBasicDataFormatter&#45;&gt;\\phpWTL\\aSingleton -->
<g id="edge1" class="edge"><title>\\phpWTL\\aBasicDataFormatter&#45;&gt;\\phpWTL\\aSingleton</title>
<path fill="none" stroke="black" d="M246.881,-249.264C212.723,-291.939 127.578,-398.316 87.9292,-447.852"/>
<polygon fill="none" stroke="black" points="85.0399,-445.861 81.5234,-455.855 90.5049,-450.235 85.0399,-445.861"/>
</g>
<!-- \\phpWTL\\PhpAppDataRetriever -->
<g id="node14" class="node"><title>\\phpWTL\\PhpAppDataRetriever</title>
<polygon fill="none" stroke="black" points="579,-330 434,-330 434,-294 579,-294 579,-330"/>
<text text-anchor="middle" x="506.5" y="-309.2" font-family="Courier,monospace" font-size="11.00">PhpAppDataRetriever</text>
</g>
<!-- \\phpWTL\\aBasicDataRetriever -->
<g id="node21" class="node"><title>\\phpWTL\\aBasicDataRetriever</title>
<polygon fill="none" stroke="black" points="335,-411 190,-411 190,-375 335,-375 335,-411"/>
<text text-anchor="start" x="228.5" y="-396.2" font-family="Courier,monospace" font-size="11.00">«abstract»</text>
<text text-anchor="start" x="198" y="-384.2" font-family="Courier,monospace" font-size="11.00">aBasicDataRetriever</text>
</g>
<!-- \\phpWTL\\PhpAppDataRetriever&#45;&gt;\\phpWTL\\aBasicDataRetriever -->
<g id="edge2" class="edge"><title>\\phpWTL\\PhpAppDataRetriever&#45;&gt;\\phpWTL\\aBasicDataRetriever</title>
<path fill="none" stroke="black" d="M441.296,-330.046C431.615,-332.939 421.771,-335.978 412.5,-339 381.845,-348.993 348.034,-361.152 320.38,-371.401"/>
<polygon fill="none" stroke="black" points="319.022,-368.172 310.87,-374.939 321.463,-374.732 319.022,-368.172"/>
</g>
<!-- \\phpWTL\\PhpAppLoggerHelper -->
<g id="node15" class="node"><title>\\phpWTL\\PhpAppLoggerHelper</title>
<polygon fill="none" stroke="black" points="829.5,-762 691.5,-762 691.5,-726 829.5,-726 829.5,-762"/>
<text text-anchor="middle" x="760.5" y="-741.2" font-family="Courier,monospace" font-size="11.00">PhpAppLoggerHelper</text>
</g>
<!-- \\phpWTL\\CombinedLogger -->
<g id="node16" class="node"><title>\\phpWTL\\CombinedLogger</title>
<polygon fill="none" stroke="black" points="816,-654 705,-654 705,-618 816,-618 816,-654"/>
<text text-anchor="middle" x="760.5" y="-633.2" font-family="Courier,monospace" font-size="11.00">CombinedLogger</text>
</g>
<!-- \\phpWTL\\CommonLogger -->
<g id="node33" class="node"><title>\\phpWTL\\CommonLogger</title>
<polygon fill="none" stroke="black" points="555.5,-546 457.5,-546 457.5,-510 555.5,-510 555.5,-546"/>
<text text-anchor="middle" x="506.5" y="-525.2" font-family="Courier,monospace" font-size="11.00">CommonLogger</text>
</g>
<!-- \\phpWTL\\CombinedLogger&#45;&gt;\\phpWTL\\CommonLogger -->
<g id="edge5" class="edge"><title>\\phpWTL\\CombinedLogger&#45;&gt;\\phpWTL\\CommonLogger</title>
<path fill="none" stroke="black" d="M704.919,-623.659C692.422,-619.816 679.454,-614.975 668,-609 633.938,-591.23 634.601,-572.695 600.5,-555 589.657,-549.374 577.478,-544.766 565.595,-541.053"/>
<polygon fill="none" stroke="black" points="566.299,-537.611 555.717,-538.14 564.319,-544.326 566.299,-537.611"/>
</g>
<!-- \\phpWTL\\PhpAppLogger -->
<g id="node17" class="node"><title>\\phpWTL\\PhpAppLogger</title>
<polygon fill="none" stroke="black" points="555.5,-654 457.5,-654 457.5,-618 555.5,-618 555.5,-654"/>
<text text-anchor="middle" x="506.5" y="-633.2" font-family="Courier,monospace" font-size="11.00">PhpAppLogger</text>
</g>
<!-- \\phpWTL\\aBasicLogger -->
<g id="node35" class="node"><title>\\phpWTL\\aBasicLogger</title>
<polygon fill="none" stroke="black" points="311.5,-573 213.5,-573 213.5,-537 311.5,-537 311.5,-573"/>
<text text-anchor="start" x="228.5" y="-558.2" font-family="Courier,monospace" font-size="11.00">«abstract»</text>
<text text-anchor="start" x="221.5" y="-546.2" font-family="Courier,monospace" font-size="11.00">aBasicLogger</text>
</g>
<!-- \\phpWTL\\PhpAppLogger&#45;&gt;\\phpWTL\\aBasicLogger -->
<g id="edge6" class="edge"><title>\\phpWTL\\PhpAppLogger&#45;&gt;\\phpWTL\\aBasicLogger</title>
<path fill="none" stroke="black" d="M457.048,-622.581C442.652,-618.419 426.886,-613.69 412.5,-609 381.845,-599.007 348.034,-586.848 320.38,-576.599"/>
<polygon fill="none" stroke="black" points="321.463,-573.268 310.87,-573.061 319.022,-579.828 321.463,-573.268"/>
</g>
<!-- \\phpWTL\\ExtendedDataFormatter -->
<g id="node18" class="node"><title>\\phpWTL\\ExtendedDataFormatter</title>
<polygon fill="none" stroke="black" points="585.5,-222 427.5,-222 427.5,-186 585.5,-186 585.5,-222"/>
<text text-anchor="middle" x="506.5" y="-201.2" font-family="Courier,monospace" font-size="11.00">ExtendedDataFormatter</text>
</g>
<!-- \\phpWTL\\ExtendedDataFormatter&#45;&gt;\\phpWTL\\aBasicDataFormatter -->
<g id="edge7" class="edge"><title>\\phpWTL\\ExtendedDataFormatter&#45;&gt;\\phpWTL\\aBasicDataFormatter</title>
<path fill="none" stroke="black" d="M427.264,-212.729C401.059,-215.652 371.784,-218.919 345.314,-221.872"/>
<polygon fill="none" stroke="black" points="344.869,-218.4 335.319,-222.987 345.645,-225.357 344.869,-218.4"/>
</g>
<!-- \\phpWTL\\GenericDataValidator -->
<g id="node19" class="node"><title>\\phpWTL\\GenericDataValidator</title>
<polygon fill="none" stroke="black" points="582.5,-492 430.5,-492 430.5,-456 582.5,-456 582.5,-492"/>
<text text-anchor="middle" x="506.5" y="-471.2" font-family="Courier,monospace" font-size="11.00">GenericDataValidator</text>
</g>
<!-- \\phpWTL\\aBasicDataValidator -->
<g id="node27" class="node"><title>\\phpWTL\\aBasicDataValidator</title>
<polygon fill="none" stroke="black" points="335,-492 190,-492 190,-456 335,-456 335,-492"/>
<text text-anchor="start" x="228.5" y="-477.2" font-family="Courier,monospace" font-size="11.00">«abstract»</text>
<text text-anchor="start" x="198" y="-465.2" font-family="Courier,monospace" font-size="11.00">aBasicDataValidator</text>
</g>
<!-- \\phpWTL\\GenericDataValidator&#45;&gt;\\phpWTL\\aBasicDataValidator -->
<g id="edge8" class="edge"><title>\\phpWTL\\GenericDataValidator&#45;&gt;\\phpWTL\\aBasicDataValidator</title>
<path fill="none" stroke="black" d="M430.256,-474C403.435,-474 373.097,-474 345.72,-474"/>
<polygon fill="none" stroke="black" points="345.386,-470.5 335.386,-474 345.386,-477.5 345.386,-470.5"/>
</g>
<!-- \\phpWTL\\CombinedFormatDescriptor -->
<g id="node20" class="node"><title>\\phpWTL\\CombinedFormatDescriptor</title>
<polygon fill="none" stroke="black" points="850,-708 671,-708 671,-672 850,-672 850,-708"/>
<text text-anchor="middle" x="760.5" y="-687.2" font-family="Courier,monospace" font-size="11.00">CombinedFormatDescriptor</text>
</g>
<!-- \\phpWTL\\CommonFormatDescriptor -->
<g id="node32" class="node"><title>\\phpWTL\\CommonFormatDescriptor</title>
<polygon fill="none" stroke="black" points="589,-708 424,-708 424,-672 589,-672 589,-708"/>
<text text-anchor="middle" x="506.5" y="-687.2" font-family="Courier,monospace" font-size="11.00">CommonFormatDescriptor</text>
</g>
<!-- \\phpWTL\\CombinedFormatDescriptor&#45;&gt;\\phpWTL\\CommonFormatDescriptor -->
<g id="edge9" class="edge"><title>\\phpWTL\\CombinedFormatDescriptor&#45;&gt;\\phpWTL\\CommonFormatDescriptor</title>
<path fill="none" stroke="black" d="M670.654,-690C647.571,-690 622.662,-690 599.424,-690"/>
<polygon fill="none" stroke="black" points="599.229,-686.5 589.229,-690 599.229,-693.5 599.229,-686.5"/>
</g>
<!-- \\phpWTL\\aBasicDataRetriever&#45;&gt;\\phpWTL\\aSingleton -->
<g id="edge10" class="edge"><title>\\phpWTL\\aBasicDataRetriever&#45;&gt;\\phpWTL\\aSingleton</title>
<path fill="none" stroke="black" d="M217.85,-411.178C188.11,-423.563 148.645,-439.999 117.54,-452.953"/>
<polygon fill="none" stroke="black" points="116.061,-449.777 108.175,-456.853 118.752,-456.239 116.061,-449.777"/>
</g>
<!-- \\phpWTL\\phpWTL -->
<g id="node22" class="node"><title>\\phpWTL\\phpWTL</title>
<polygon fill="none" stroke="black" points="789,-600 732,-600 732,-564 789,-564 789,-600"/>
<text text-anchor="middle" x="760.5" y="-579.2" font-family="Courier,monospace" font-size="11.00">phpWTL</text>
</g>
<!-- \\phpWTL\\LoggerContent -->
<g id="node23" class="node"><title>\\phpWTL\\LoggerContent</title>
<polygon fill="none" stroke="black" points="812.5,-546 708.5,-546 708.5,-510 812.5,-510 812.5,-546"/>
<text text-anchor="middle" x="760.5" y="-525.2" font-family="Courier,monospace" font-size="11.00">LoggerContent</text>
</g>
<!-- \\phpWTL\\ExtendedDataRetriever -->
<g id="node24" class="node"><title>\\phpWTL\\ExtendedDataRetriever</title>
<polygon fill="none" stroke="black" points="585.5,-438 427.5,-438 427.5,-402 585.5,-402 585.5,-438"/>
<text text-anchor="middle" x="506.5" y="-417.2" font-family="Courier,monospace" font-size="11.00">ExtendedDataRetriever</text>
</g>
<!-- \\phpWTL\\ExtendedDataRetriever&#45;&gt;\\phpWTL\\aBasicDataRetriever -->
<g id="edge11" class="edge"><title>\\phpWTL\\ExtendedDataRetriever&#45;&gt;\\phpWTL\\aBasicDataRetriever</title>
<path fill="none" stroke="black" d="M427.264,-411.271C401.059,-408.348 371.784,-405.081 345.314,-402.128"/>
<polygon fill="none" stroke="black" points="345.645,-398.643 335.319,-401.013 344.869,-405.6 345.645,-398.643"/>
</g>
<!-- \\phpWTL\\LogBufferHelper -->
<g id="node25" class="node"><title>\\phpWTL\\LogBufferHelper</title>
<polygon fill="none" stroke="black" points="819.5,-492 701.5,-492 701.5,-456 819.5,-456 819.5,-492"/>
<text text-anchor="middle" x="760.5" y="-471.2" font-family="Courier,monospace" font-size="11.00">LogBufferHelper</text>
</g>
<!-- \\phpWTL\\LogBuffer -->
<g id="node26" class="node"><title>\\phpWTL\\LogBuffer</title>
<polygon fill="none" stroke="black" points="799,-438 722,-438 722,-402 799,-402 799,-438"/>
<text text-anchor="middle" x="760.5" y="-417.2" font-family="Courier,monospace" font-size="11.00">LogBuffer</text>
</g>
<!-- \\phpWTL\\aBasicDataValidator&#45;&gt;\\phpWTL\\aSingleton -->
<g id="edge12" class="edge"><title>\\phpWTL\\aBasicDataValidator&#45;&gt;\\phpWTL\\aSingleton</title>
<path fill="none" stroke="black" d="M189.904,-474C166.153,-474 140.203,-474 118.294,-474"/>
<polygon fill="none" stroke="black" points="118.214,-470.5 108.214,-474 118.214,-477.5 118.214,-470.5"/>
</g>
<!-- \\phpWTL\\CommonDataFormatter -->
<g id="node28" class="node"><title>\\phpWTL\\CommonDataFormatter</title>
<polygon fill="none" stroke="black" points="579,-276 434,-276 434,-240 579,-240 579,-276"/>
<text text-anchor="middle" x="506.5" y="-255.2" font-family="Courier,monospace" font-size="11.00">CommonDataFormatter</text>
</g>
<!-- \\phpWTL\\CommonDataFormatter&#45;&gt;\\phpWTL\\aBasicDataFormatter -->
<g id="edge13" class="edge"><title>\\phpWTL\\CommonDataFormatter&#45;&gt;\\phpWTL\\aBasicDataFormatter</title>
<path fill="none" stroke="black" d="M433.874,-250.009C406.072,-246.907 374.071,-243.336 345.364,-240.134"/>
<polygon fill="none" stroke="black" points="345.687,-236.648 335.36,-239.017 344.91,-243.605 345.687,-236.648"/>
</g>
<!-- \\phpWTL\\aBasicFormatDescriptor -->
<g id="node29" class="node"><title>\\phpWTL\\aBasicFormatDescriptor</title>
<polygon fill="none" stroke="black" points="345,-735 180,-735 180,-699 345,-699 345,-735"/>
<text text-anchor="start" x="228.5" y="-720.2" font-family="Courier,monospace" font-size="11.00">«abstract»</text>
<text text-anchor="start" x="188" y="-708.2" font-family="Courier,monospace" font-size="11.00">aBasicFormatDescriptor</text>
</g>
<!-- \\phpWTL\\aBasicFormatDescriptor&#45;&gt;\\phpWTL\\aSingleton -->
<g id="edge14" class="edge"><title>\\phpWTL\\aBasicFormatDescriptor&#45;&gt;\\phpWTL\\aSingleton</title>
<path fill="none" stroke="black" d="M246.881,-698.736C212.723,-656.061 127.578,-549.684 87.9292,-500.148"/>
<polygon fill="none" stroke="black" points="90.5049,-497.765 81.5234,-492.145 85.0399,-502.139 90.5049,-497.765"/>
</g>
<!-- \\phpWTL\\CombinedDataFormatter -->
<g id="node30" class="node"><title>\\phpWTL\\CombinedDataFormatter</title>
<polygon fill="none" stroke="black" points="839.5,-276 681.5,-276 681.5,-240 839.5,-240 839.5,-276"/>
<text text-anchor="middle" x="760.5" y="-255.2" font-family="Courier,monospace" font-size="11.00">CombinedDataFormatter</text>
</g>
<!-- \\phpWTL\\CombinedDataFormatter&#45;&gt;\\phpWTL\\CommonDataFormatter -->
<g id="edge15" class="edge"><title>\\phpWTL\\CombinedDataFormatter&#45;&gt;\\phpWTL\\CommonDataFormatter</title>
<path fill="none" stroke="black" d="M681.491,-258C652.269,-258 618.996,-258 589.429,-258"/>
<polygon fill="none" stroke="black" points="589.138,-254.5 579.138,-258 589.138,-261.5 589.138,-254.5"/>
</g>
<!-- \\phpWTL\\PhpAppDataFormatter -->
<g id="node31" class="node"><title>\\phpWTL\\PhpAppDataFormatter</title>
<polygon fill="none" stroke="black" points="579,-168 434,-168 434,-132 579,-132 579,-168"/>
<text text-anchor="middle" x="506.5" y="-147.2" font-family="Courier,monospace" font-size="11.00">PhpAppDataFormatter</text>
</g>
<!-- \\phpWTL\\PhpAppDataFormatter&#45;&gt;\\phpWTL\\aBasicDataFormatter -->
<g id="edge16" class="edge"><title>\\phpWTL\\PhpAppDataFormatter&#45;&gt;\\phpWTL\\aBasicDataFormatter</title>
<path fill="none" stroke="black" d="M441.296,-168.046C431.615,-170.939 421.771,-173.978 412.5,-177 381.845,-186.993 348.034,-199.152 320.38,-209.401"/>
<polygon fill="none" stroke="black" points="319.022,-206.172 310.87,-212.939 321.463,-212.732 319.022,-206.172"/>
</g>
<!-- \\phpWTL\\CommonFormatDescriptor&#45;&gt;\\phpWTL\\aBasicFormatDescriptor -->
<g id="edge17" class="edge"><title>\\phpWTL\\CommonFormatDescriptor&#45;&gt;\\phpWTL\\aBasicFormatDescriptor</title>
<path fill="none" stroke="black" d="M423.907,-699.103C401.894,-701.559 377.926,-704.233 355.391,-706.748"/>
<polygon fill="none" stroke="black" points="354.7,-703.303 345.15,-707.89 355.477,-710.26 354.7,-703.303"/>
</g>
<!-- \\phpWTL\\CommonLogger&#45;&gt;\\phpWTL\\aBasicLogger -->
<g id="edge18" class="edge"><title>\\phpWTL\\CommonLogger&#45;&gt;\\phpWTL\\aBasicLogger</title>
<path fill="none" stroke="black" d="M457.399,-533.367C418.305,-537.728 363.026,-543.896 321.487,-548.53"/>
<polygon fill="none" stroke="black" points="321.06,-545.056 311.51,-549.644 321.836,-552.013 321.06,-545.056"/>
</g>
<!-- \\phpWTL\\CommonDataRetriever -->
<g id="node34" class="node"><title>\\phpWTL\\CommonDataRetriever</title>
<polygon fill="none" stroke="black" points="579,-384 434,-384 434,-348 579,-348 579,-384"/>
<text text-anchor="middle" x="506.5" y="-363.2" font-family="Courier,monospace" font-size="11.00">CommonDataRetriever</text>
</g>
<!-- \\phpWTL\\CommonDataRetriever&#45;&gt;\\phpWTL\\aBasicDataRetriever -->
<g id="edge20" class="edge"><title>\\phpWTL\\CommonDataRetriever&#45;&gt;\\phpWTL\\aBasicDataRetriever</title>
<path fill="none" stroke="black" d="M433.874,-373.991C406.072,-377.093 374.071,-380.664 345.364,-383.866"/>
<polygon fill="none" stroke="black" points="344.91,-380.395 335.36,-384.983 345.687,-387.352 344.91,-380.395"/>
</g>
<!-- \\phpWTL\\aBasicLogger&#45;&gt;\\phpWTL\\aSingleton -->
<g id="edge21" class="edge"><title>\\phpWTL\\aBasicLogger&#45;&gt;\\phpWTL\\aSingleton</title>
<path fill="none" stroke="black" d="M217.85,-536.822C188.11,-524.437 148.645,-508.001 117.54,-495.047"/>
<polygon fill="none" stroke="black" points="118.752,-491.761 108.175,-491.147 116.061,-498.223 118.752,-491.761"/>
</g>
<!-- \\phpWTL\\DRP -->
<g id="node36" class="node"><title>\\phpWTL\\DRP</title>
<polygon fill="none" stroke="black" points="787.5,-330 733.5,-330 733.5,-294 787.5,-294 787.5,-330"/>
<text text-anchor="middle" x="760.5" y="-309.2" font-family="Courier,monospace" font-size="11.00">DRP</text>
</g>
<!-- \\phpWTL\\PhpAppFormatDescriptor -->
<g id="node37" class="node"><title>\\phpWTL\\PhpAppFormatDescriptor</title>
<polygon fill="none" stroke="black" points="589,-816 424,-816 424,-780 589,-780 589,-816"/>
<text text-anchor="middle" x="506.5" y="-795.2" font-family="Courier,monospace" font-size="11.00">PhpAppFormatDescriptor</text>
</g>
<!-- \\phpWTL\\PhpAppFormatDescriptor&#45;&gt;\\phpWTL\\aBasicFormatDescriptor -->
<g id="edge22" class="edge"><title>\\phpWTL\\PhpAppFormatDescriptor&#45;&gt;\\phpWTL\\aBasicFormatDescriptor</title>
<path fill="none" stroke="black" d="M441.296,-779.954C431.615,-777.061 421.771,-774.022 412.5,-771 381.845,-761.007 348.034,-748.848 320.38,-738.599"/>
<polygon fill="none" stroke="black" points="321.463,-735.268 310.87,-735.061 319.022,-741.828 321.463,-735.268"/>
</g>
<!-- \\phpWTL\\CombinedDataRetriever -->
<g id="node38" class="node"><title>\\phpWTL\\CombinedDataRetriever</title>
<polygon fill="none" stroke="black" points="839.5,-384 681.5,-384 681.5,-348 839.5,-348 839.5,-384"/>
<text text-anchor="middle" x="760.5" y="-363.2" font-family="Courier,monospace" font-size="11.00">CombinedDataRetriever</text>
</g>
<!-- \\phpWTL\\CombinedDataRetriever&#45;&gt;\\phpWTL\\CommonDataRetriever -->
<g id="edge23" class="edge"><title>\\phpWTL\\CombinedDataRetriever&#45;&gt;\\phpWTL\\CommonDataRetriever</title>
<path fill="none" stroke="black" d="M681.491,-366C652.269,-366 618.996,-366 589.429,-366"/>
<polygon fill="none" stroke="black" points="589.138,-362.5 579.138,-366 589.138,-369.5 589.138,-362.5"/>
</g>
<!-- \\phpWTL\\ExtendedFormatDescriptor -->
<g id="node39" class="node"><title>\\phpWTL\\ExtendedFormatDescriptor</title>
<polygon fill="none" stroke="black" points="596,-762 417,-762 417,-726 596,-726 596,-762"/>
<text text-anchor="middle" x="506.5" y="-741.2" font-family="Courier,monospace" font-size="11.00">ExtendedFormatDescriptor</text>
</g>
<!-- \\phpWTL\\ExtendedFormatDescriptor&#45;&gt;\\phpWTL\\aBasicFormatDescriptor -->
<g id="edge24" class="edge"><title>\\phpWTL\\ExtendedFormatDescriptor&#45;&gt;\\phpWTL\\aBasicFormatDescriptor</title>
<path fill="none" stroke="black" d="M416.762,-734.1C396.683,-731.859 375.325,-729.476 355.128,-727.223"/>
<polygon fill="none" stroke="black" points="355.33,-723.724 345.003,-726.093 354.553,-730.681 355.33,-723.724"/>
</g>
<!-- \\phpWTL\\DescriptorField -->
<g id="node40" class="node"><title>\\phpWTL\\DescriptorField</title>
<polygon fill="none" stroke="black" points="819.5,-222 701.5,-222 701.5,-186 819.5,-186 819.5,-222"/>
<text text-anchor="middle" x="760.5" y="-201.2" font-family="Courier,monospace" font-size="11.00">DescriptorField</text>
</g>
<!-- \\phpWTL\\ExtendedLogger -->
<g id="node41" class="node"><title>\\phpWTL\\ExtendedLogger</title>
<polygon fill="none" stroke="black" points="562,-600 451,-600 451,-564 562,-564 562,-600"/>
<text text-anchor="middle" x="506.5" y="-579.2" font-family="Courier,monospace" font-size="11.00">ExtendedLogger</text>
</g>
<!-- \\phpWTL\\ExtendedLogger&#45;&gt;\\phpWTL\\aBasicLogger -->
<g id="edge25" class="edge"><title>\\phpWTL\\ExtendedLogger&#45;&gt;\\phpWTL\\aBasicLogger</title>
<path fill="none" stroke="black" d="M450.889,-575.907C412.416,-571.615 360.975,-565.875 321.723,-561.496"/>
<polygon fill="none" stroke="black" points="322.092,-558.016 311.766,-560.385 321.316,-564.972 322.092,-558.016"/>
</g>
<!-- \\phpWTL\\DataRetrievalPolicy -->
<g id="node42" class="node"><title>\\phpWTL\\DataRetrievalPolicy</title>
<polygon fill="none" stroke="black" points="833,-168 688,-168 688,-132 833,-132 833,-168"/>
<text text-anchor="middle" x="760.5" y="-147.2" font-family="Courier,monospace" font-size="11.00">DataRetrievalPolicy</text>
</g>
<!-- \\phpWTL\\DataRetrievalPolicyHelper -->
<g id="node43" class="node"><title>\\phpWTL\\DataRetrievalPolicyHelper</title>
<polygon fill="none" stroke="black" points="853,-114 668,-114 668,-78 853,-78 853,-114"/>
<text text-anchor="middle" x="760.5" y="-93.2" font-family="Courier,monospace" font-size="11.00">DataRetrievalPolicyHelper</text>
</g>
<!-- \\phpWTL\\FormatDescriptorHelper -->
<g id="node44" class="node"><title>\\phpWTL\\FormatDescriptorHelper</title>
<polygon fill="none" stroke="black" points="843,-60 678,-60 678,-24 843,-24 843,-60"/>
<text text-anchor="middle" x="760.5" y="-39.2" font-family="Courier,monospace" font-size="11.00">FormatDescriptorHelper</text>
</g>
</g>
</svg>
