<?xml version="1.0" encoding="UTF-8" standalone="no"?>
<!DOCTYPE svg PUBLIC "-//W3C//DTD SVG 1.1//EN"
 "http://www.w3.org/Graphics/SVG/1.1/DTD/svg11.dtd">
<!-- Generated by graphviz version 2.38.0 (20140413.2041)
 -->
<!-- Title: G Pages: 1 -->
<svg width="885pt" height="1380pt"
 viewBox="0.00 0.00 885.00 1380.00" xmlns="http://www.w3.org/2000/svg" xmlns:xlink="http://www.w3.org/1999/xlink">
<g id="graph0" class="graph" transform="scale(1 1) rotate(0) translate(4 1376)">
<title>G</title>
<polygon fill="white" stroke="none" points="-4,4 -4,-1376 881,-1376 881,4 -4,4"/>
<g id="clust1" class="cluster"><title>cluster_Global</title>
<path fill="none" stroke="gray" d="M20,-8C20,-8 857,-8 857,-8 863,-8 869,-14 869,-20 869,-20 869,-1352 869,-1352 869,-1358 863,-1364 857,-1364 857,-1364 20,-1364 20,-1364 14,-1364 8,-1358 8,-1352 8,-1352 8,-20 8,-20 8,-14 14,-8 20,-8"/>
<text text-anchor="middle" x="438.5" y="-1351.2" font-family="Times New Roman,serif" font-size="11.00" fill="gray">Global</text>
</g>
<g id="clust2" class="cluster"><title>cluster_\phpWTL</title>
<path fill="none" stroke="gray" d="M28,-16C28,-16 849,-16 849,-16 855,-16 861,-22 861,-28 861,-28 861,-1324 861,-1324 861,-1330 855,-1336 849,-1336 849,-1336 28,-1336 28,-1336 22,-1336 16,-1330 16,-1324 16,-1324 16,-28 16,-28 16,-22 22,-16 28,-16"/>
<text text-anchor="middle" x="438.5" y="-1323.2" font-family="Times New Roman,serif" font-size="11.00" fill="gray">phpWTL</text>
</g>
<g id="clust6" class="cluster"><title>cluster_\phpWTL\Tools</title>
<path fill="none" stroke="gray" d="M722.5,-1074C722.5,-1074 798.5,-1074 798.5,-1074 804.5,-1074 810.5,-1080 810.5,-1086 810.5,-1086 810.5,-1296 810.5,-1296 810.5,-1302 804.5,-1308 798.5,-1308 798.5,-1308 722.5,-1308 722.5,-1308 716.5,-1308 710.5,-1302 710.5,-1296 710.5,-1296 710.5,-1086 710.5,-1086 710.5,-1080 716.5,-1074 722.5,-1074"/>
<text text-anchor="middle" x="760.5" y="-1295.2" font-family="Times New Roman,serif" font-size="11.00" fill="gray">Tools</text>
</g>
<g id="clust3" class="cluster"><title>cluster_\phpWTL\LogWriter</title>
<path fill="none" stroke="gray" d="M207.5,-770C207.5,-770 837,-770 837,-770 843,-770 849,-776 849,-782 849,-782 849,-1054 849,-1054 849,-1060 843,-1066 837,-1066 837,-1066 207.5,-1066 207.5,-1066 201.5,-1066 195.5,-1060 195.5,-1054 195.5,-1054 195.5,-782 195.5,-782 195.5,-776 201.5,-770 207.5,-770"/>
<text text-anchor="middle" x="522.25" y="-1053.2" font-family="Times New Roman,serif" font-size="11.00" fill="gray">LogWriter</text>
</g>
<g id="clust4" class="cluster"><title>cluster_\phpWTL\LogWriter\DBLW</title>
<path fill="none" stroke="gray" d="M424.5,-912C424.5,-912 588.5,-912 588.5,-912 594.5,-912 600.5,-918 600.5,-924 600.5,-924 600.5,-1026 600.5,-1026 600.5,-1032 594.5,-1038 588.5,-1038 588.5,-1038 424.5,-1038 424.5,-1038 418.5,-1038 412.5,-1032 412.5,-1026 412.5,-1026 412.5,-924 412.5,-924 412.5,-918 418.5,-912 424.5,-912"/>
<text text-anchor="middle" x="506.5" y="-1025.2" font-family="Times New Roman,serif" font-size="11.00" fill="gray">DBLW</text>
</g>
<g id="clust5" class="cluster"><title>cluster_\phpWTL\LogWriter\FLW</title>
<path fill="none" stroke="gray" d="M458.5,-778C458.5,-778 829,-778 829,-778 835,-778 841,-784 841,-790 841,-790 841,-892 841,-892 841,-898 835,-904 829,-904 829,-904 458.5,-904 458.5,-904 452.5,-904 446.5,-898 446.5,-892 446.5,-892 446.5,-790 446.5,-790 446.5,-784 452.5,-778 458.5,-778"/>
<text text-anchor="middle" x="643.75" y="-891.2" font-family="Times New Roman,serif" font-size="11.00" fill="gray">FLW</text>
</g>
<!-- \\phpWTL\\LogWriter\\DBLW\\DatabaseLogWriterHelper -->
<g id="node1" class="node"><title>\\phpWTL\\LogWriter\\DBLW\\DatabaseLogWriterHelper</title>
<polygon fill="none" stroke="black" points="592.5,-1010 420.5,-1010 420.5,-974 592.5,-974 592.5,-1010"/>
<text text-anchor="middle" x="506.5" y="-989.2" font-family="Courier,monospace" font-size="11.00">DatabaseLogWriterHelper</text>
</g>
<!-- \\phpWTL\\LogWriter\\DBLW\\DatabaseLogWriter -->
<g id="node2" class="node"><title>\\phpWTL\\LogWriter\\DBLW\\DatabaseLogWriter</title>
<polygon fill="none" stroke="black" points="572,-956 441,-956 441,-920 572,-920 572,-956"/>
<text text-anchor="middle" x="506.5" y="-935.2" font-family="Courier,monospace" font-size="11.00">DatabaseLogWriter</text>
</g>
<!-- \\phpWTL\\LogWriter\\iBasicLogWriter -->
<g id="node6" class="node"><title>\\phpWTL\\LogWriter\\iBasicLogWriter</title>
<polygon fill="none" stroke="black" points="321.5,-902 203.5,-902 203.5,-866 321.5,-866 321.5,-902"/>
<text text-anchor="middle" x="262.5" y="-881.2" font-family="Courier,monospace" font-size="11.00">iBasicLogWriter</text>
</g>
<!-- \\phpWTL\\LogWriter\\DBLW\\DatabaseLogWriter&#45;&gt;\\phpWTL\\LogWriter\\iBasicLogWriter -->
<g id="edge4" class="edge"><title>\\phpWTL\\LogWriter\\DBLW\\DatabaseLogWriter&#45;&gt;\\phpWTL\\LogWriter\\iBasicLogWriter</title>
<path fill="none" stroke="black" stroke-dasharray="1,5" d="M440.966,-923.6C407.195,-916.064 365.86,-906.841 331.581,-899.192"/>
<polygon fill="none" stroke="black" points="332.172,-895.737 321.65,-896.976 330.647,-902.569 332.172,-895.737"/>
</g>
<!-- \\phpWTL\\LogWriter\\FLW\\FileLogWriter -->
<g id="node3" class="node"><title>\\phpWTL\\LogWriter\\FLW\\FileLogWriter</title>
<polygon fill="none" stroke="black" points="558.5,-849 454.5,-849 454.5,-813 558.5,-813 558.5,-849"/>
<text text-anchor="middle" x="506.5" y="-828.2" font-family="Courier,monospace" font-size="11.00">FileLogWriter</text>
</g>
<!-- \\phpWTL\\LogWriter\\FLW\\FileLogWriter&#45;&gt;\\phpWTL\\LogWriter\\iBasicLogWriter -->
<g id="edge3" class="edge"><title>\\phpWTL\\LogWriter\\FLW\\FileLogWriter&#45;&gt;\\phpWTL\\LogWriter\\iBasicLogWriter</title>
<path fill="none" stroke="black" stroke-dasharray="1,5" d="M454.474,-842.175C418.831,-849.981 370.845,-860.49 331.893,-869.021"/>
<polygon fill="none" stroke="black" points="330.701,-865.699 321.682,-871.258 332.199,-872.537 330.701,-865.699"/>
</g>
<!-- \\phpWTL\\LogWriter\\FLW\\FileLogWriterHelper -->
<g id="node4" class="node"><title>\\phpWTL\\LogWriter\\FLW\\FileLogWriterHelper</title>
<polygon fill="none" stroke="black" points="833,-876 688,-876 688,-840 833,-840 833,-876"/>
<text text-anchor="middle" x="760.5" y="-855.2" font-family="Courier,monospace" font-size="11.00">FileLogWriterHelper</text>
</g>
<!-- \\phpWTL\\LogWriter\\FLW\\FileLogWriterExt -->
<g id="node5" class="node"><title>\\phpWTL\\LogWriter\\FLW\\FileLogWriterExt</title>
<polygon fill="none" stroke="black" points="823,-822 698,-822 698,-786 823,-786 823,-822"/>
<text text-anchor="middle" x="760.5" y="-801.2" font-family="Courier,monospace" font-size="11.00">FileLogWriterExt</text>
</g>
<!-- \\phpWTL\\LogWriter\\FLW\\FileLogWriterExt&#45;&gt;\\phpWTL\\LogWriter\\FLW\\FileLogWriter -->
<g id="edge19" class="edge"><title>\\phpWTL\\LogWriter\\FLW\\FileLogWriterExt&#45;&gt;\\phpWTL\\LogWriter\\FLW\\FileLogWriter</title>
<path fill="none" stroke="black" d="M697.854,-810.605C658.579,-814.813 607.902,-820.243 568.712,-824.442"/>
<polygon fill="none" stroke="black" points="568.324,-820.963 558.753,-825.509 569.069,-827.923 568.324,-820.963"/>
</g>
<!-- \\phpWTL\\Tools\\SALT -->
<g id="node7" class="node"><title>\\phpWTL\\Tools\\SALT</title>
<polygon fill="none" stroke="black" points="787.5,-1280 733.5,-1280 733.5,-1244 787.5,-1244 787.5,-1280"/>
<text text-anchor="middle" x="760.5" y="-1259.2" font-family="Courier,monospace" font-size="11.00">SALT</text>
</g>
<!-- \\phpWTL\\Tools\\PEPRHelper -->
<g id="node8" class="node"><title>\\phpWTL\\Tools\\PEPRHelper</title>
<polygon fill="none" stroke="black" points="802.5,-1226 718.5,-1226 718.5,-1190 802.5,-1190 802.5,-1226"/>
<text text-anchor="middle" x="760.5" y="-1205.2" font-family="Courier,monospace" font-size="11.00">PEPRHelper</text>
</g>
<!-- \\phpWTL\\Tools\\PEPR -->
<g id="node9" class="node"><title>\\phpWTL\\Tools\\PEPR</title>
<polygon fill="none" stroke="black" points="787.5,-1172 733.5,-1172 733.5,-1136 787.5,-1136 787.5,-1172"/>
<text text-anchor="middle" x="760.5" y="-1151.2" font-family="Courier,monospace" font-size="11.00">PEPR</text>
</g>
<!-- \\phpWTL\\Tools\\SALTHelper -->
<g id="node10" class="node"><title>\\phpWTL\\Tools\\SALTHelper</title>
<polygon fill="none" stroke="black" points="802.5,-1118 718.5,-1118 718.5,-1082 802.5,-1082 802.5,-1118"/>
<text text-anchor="middle" x="760.5" y="-1097.2" font-family="Courier,monospace" font-size="11.00">SALTHelper</text>
</g>
<!-- \\phpWTL\\aSingleton -->
<g id="node11" class="node"><title>\\phpWTL\\aSingleton</title>
<polygon fill="none" stroke="black" points="108,-438 24,-438 24,-402 108,-402 108,-438"/>
<text text-anchor="start" x="32" y="-423.2" font-family="Courier,monospace" font-size="11.00">«abstract»</text>
<text text-anchor="start" x="32" y="-411.2" font-family="Courier,monospace" font-size="11.00">aSingleton</text>
</g>
<!-- \\phpWTL\\aBasicDataFormatter -->
<g id="node12" class="node"><title>\\phpWTL\\aBasicDataFormatter</title>
<polygon fill="none" stroke="black" points="335,-195 190,-195 190,-159 335,-159 335,-195"/>
<text text-anchor="start" x="228.5" y="-180.2" font-family="Courier,monospace" font-size="11.00">«abstract»</text>
<text text-anchor="start" x="198" y="-168.2" font-family="Courier,monospace" font-size="11.00">aBasicDataFormatter</text>
</g>
<!-- \\phpWTL\\aBasicDataFormatter&#45;&gt;\\phpWTL\\aSingleton -->
<g id="edge1" class="edge"><title>\\phpWTL\\aBasicDataFormatter&#45;&gt;\\phpWTL\\aSingleton</title>
<path fill="none" stroke="black" d="M246.881,-195.264C212.723,-237.939 127.578,-344.316 87.9292,-393.852"/>
<polygon fill="none" stroke="black" points="85.0399,-391.861 81.5234,-401.855 90.5049,-396.235 85.0399,-391.861"/>
</g>
<!-- \\phpWTL\\PhpAppDataRetriever -->
<g id="node13" class="node"><title>\\phpWTL\\PhpAppDataRetriever</title>
<polygon fill="none" stroke="black" points="579,-276 434,-276 434,-240 579,-240 579,-276"/>
<text text-anchor="middle" x="506.5" y="-255.2" font-family="Courier,monospace" font-size="11.00">PhpAppDataRetriever</text>
</g>
<!-- \\phpWTL\\aBasicDataRetriever -->
<g id="node20" class="node"><title>\\phpWTL\\aBasicDataRetriever</title>
<polygon fill="none" stroke="black" points="335,-357 190,-357 190,-321 335,-321 335,-357"/>
<text text-anchor="start" x="228.5" y="-342.2" font-family="Courier,monospace" font-size="11.00">«abstract»</text>
<text text-anchor="start" x="198" y="-330.2" font-family="Courier,monospace" font-size="11.00">aBasicDataRetriever</text>
</g>
<!-- \\phpWTL\\PhpAppDataRetriever&#45;&gt;\\phpWTL\\aBasicDataRetriever -->
<g id="edge2" class="edge"><title>\\phpWTL\\PhpAppDataRetriever&#45;&gt;\\phpWTL\\aBasicDataRetriever</title>
<path fill="none" stroke="black" d="M441.296,-276.046C431.615,-278.939 421.771,-281.978 412.5,-285 381.845,-294.993 348.034,-307.152 320.38,-317.401"/>
<polygon fill="none" stroke="black" points="319.022,-314.172 310.87,-320.939 321.463,-320.732 319.022,-314.172"/>
</g>
<!-- \\phpWTL\\PhpAppLoggerHelper -->
<g id="node14" class="node"><title>\\phpWTL\\PhpAppLoggerHelper</title>
<polygon fill="none" stroke="black" points="829.5,-762 691.5,-762 691.5,-726 829.5,-726 829.5,-762"/>
<text text-anchor="middle" x="760.5" y="-741.2" font-family="Courier,monospace" font-size="11.00">PhpAppLoggerHelper</text>
</g>
<!-- \\phpWTL\\CombinedLogger -->
<g id="node15" class="node"><title>\\phpWTL\\CombinedLogger</title>
<polygon fill="none" stroke="black" points="816,-654 705,-654 705,-618 816,-618 816,-654"/>
<text text-anchor="middle" x="760.5" y="-633.2" font-family="Courier,monospace" font-size="11.00">CombinedLogger</text>
</g>
<!-- \\phpWTL\\CommonLogger -->
<g id="node32" class="node"><title>\\phpWTL\\CommonLogger</title>
<polygon fill="none" stroke="black" points="555.5,-492 457.5,-492 457.5,-456 555.5,-456 555.5,-492"/>
<text text-anchor="middle" x="506.5" y="-471.2" font-family="Courier,monospace" font-size="11.00">CommonLogger</text>
</g>
<!-- \\phpWTL\\CombinedLogger&#45;&gt;\\phpWTL\\CommonLogger -->
<g id="edge5" class="edge"><title>\\phpWTL\\CombinedLogger&#45;&gt;\\phpWTL\\CommonLogger</title>
<path fill="none" stroke="black" d="M704.661,-626.774C691.767,-622.797 678.684,-617.114 668,-609 622.924,-574.764 645.651,-535.138 600.5,-501 590.235,-493.239 577.796,-487.706 565.399,-483.761"/>
<polygon fill="none" stroke="black" points="566.085,-480.317 555.508,-480.926 564.156,-487.046 566.085,-480.317"/>
</g>
<!-- \\phpWTL\\PhpAppLogger -->
<g id="node16" class="node"><title>\\phpWTL\\PhpAppLogger</title>
<polygon fill="none" stroke="black" points="555.5,-600 457.5,-600 457.5,-564 555.5,-564 555.5,-600"/>
<text text-anchor="middle" x="506.5" y="-579.2" font-family="Courier,monospace" font-size="11.00">PhpAppLogger</text>
</g>
<!-- \\phpWTL\\aBasicLogger -->
<g id="node34" class="node"><title>\\phpWTL\\aBasicLogger</title>
<polygon fill="none" stroke="black" points="311.5,-519 213.5,-519 213.5,-483 311.5,-483 311.5,-519"/>
<text text-anchor="start" x="228.5" y="-504.2" font-family="Courier,monospace" font-size="11.00">«abstract»</text>
<text text-anchor="start" x="221.5" y="-492.2" font-family="Courier,monospace" font-size="11.00">aBasicLogger</text>
</g>
<!-- \\phpWTL\\PhpAppLogger&#45;&gt;\\phpWTL\\aBasicLogger -->
<g id="edge6" class="edge"><title>\\phpWTL\\PhpAppLogger&#45;&gt;\\phpWTL\\aBasicLogger</title>
<path fill="none" stroke="black" d="M457.048,-568.581C442.652,-564.419 426.886,-559.69 412.5,-555 381.845,-545.007 348.034,-532.848 320.38,-522.599"/>
<polygon fill="none" stroke="black" points="321.463,-519.268 310.87,-519.061 319.022,-525.828 321.463,-519.268"/>
</g>
<!-- \\phpWTL\\ExtendedDataFormatter -->
<g id="node17" class="node"><title>\\phpWTL\\ExtendedDataFormatter</title>
<polygon fill="none" stroke="black" points="585.5,-168 427.5,-168 427.5,-132 585.5,-132 585.5,-168"/>
<text text-anchor="middle" x="506.5" y="-147.2" font-family="Courier,monospace" font-size="11.00">ExtendedDataFormatter</text>
</g>
<!-- \\phpWTL\\ExtendedDataFormatter&#45;&gt;\\phpWTL\\aBasicDataFormatter -->
<g id="edge7" class="edge"><title>\\phpWTL\\ExtendedDataFormatter&#45;&gt;\\phpWTL\\aBasicDataFormatter</title>
<path fill="none" stroke="black" d="M427.264,-158.729C401.059,-161.652 371.784,-164.919 345.314,-167.872"/>
<polygon fill="none" stroke="black" points="344.869,-164.4 335.319,-168.987 345.645,-171.357 344.869,-164.4"/>
</g>
<!-- \\phpWTL\\GenericDataValidator -->
<g id="node18" class="node"><title>\\phpWTL\\GenericDataValidator</title>
<polygon fill="none" stroke="black" points="582.5,-438 430.5,-438 430.5,-402 582.5,-402 582.5,-438"/>
<text text-anchor="middle" x="506.5" y="-417.2" font-family="Courier,monospace" font-size="11.00">GenericDataValidator</text>
</g>
<!-- \\phpWTL\\aBasicDataValidator -->
<g id="node26" class="node"><title>\\phpWTL\\aBasicDataValidator</title>
<polygon fill="none" stroke="black" points="335,-438 190,-438 190,-402 335,-402 335,-438"/>
<text text-anchor="start" x="228.5" y="-423.2" font-family="Courier,monospace" font-size="11.00">«abstract»</text>
<text text-anchor="start" x="198" y="-411.2" font-family="Courier,monospace" font-size="11.00">aBasicDataValidator</text>
</g>
<!-- \\phpWTL\\GenericDataValidator&#45;&gt;\\phpWTL\\aBasicDataValidator -->
<g id="edge8" class="edge"><title>\\phpWTL\\GenericDataValidator&#45;&gt;\\phpWTL\\aBasicDataValidator</title>
<path fill="none" stroke="black" d="M430.256,-420C403.435,-420 373.097,-420 345.72,-420"/>
<polygon fill="none" stroke="black" points="345.386,-416.5 335.386,-420 345.386,-423.5 345.386,-416.5"/>
</g>
<!-- \\phpWTL\\CombinedFormatDescriptor -->
<g id="node19" class="node"><title>\\phpWTL\\CombinedFormatDescriptor</title>
<polygon fill="none" stroke="black" points="850,-708 671,-708 671,-672 850,-672 850,-708"/>
<text text-anchor="middle" x="760.5" y="-687.2" font-family="Courier,monospace" font-size="11.00">CombinedFormatDescriptor</text>
</g>
<!-- \\phpWTL\\CommonFormatDescriptor -->
<g id="node31" class="node"><title>\\phpWTL\\CommonFormatDescriptor</title>
<polygon fill="none" stroke="black" points="589,-654 424,-654 424,-618 589,-618 589,-654"/>
<text text-anchor="middle" x="506.5" y="-633.2" font-family="Courier,monospace" font-size="11.00">CommonFormatDescriptor</text>
</g>
<!-- \\phpWTL\\CombinedFormatDescriptor&#45;&gt;\\phpWTL\\CommonFormatDescriptor -->
<g id="edge9" class="edge"><title>\\phpWTL\\CombinedFormatDescriptor&#45;&gt;\\phpWTL\\CommonFormatDescriptor</title>
<path fill="none" stroke="black" d="M675.237,-671.944C650.732,-666.693 623.853,-660.933 598.929,-655.592"/>
<polygon fill="none" stroke="black" points="599.629,-652.162 589.117,-653.489 598.162,-659.007 599.629,-652.162"/>
</g>
<!-- \\phpWTL\\aBasicDataRetriever&#45;&gt;\\phpWTL\\aSingleton -->
<g id="edge10" class="edge"><title>\\phpWTL\\aBasicDataRetriever&#45;&gt;\\phpWTL\\aSingleton</title>
<path fill="none" stroke="black" d="M217.85,-357.178C188.11,-369.563 148.645,-385.999 117.54,-398.953"/>
<polygon fill="none" stroke="black" points="116.061,-395.777 108.175,-402.853 118.752,-402.239 116.061,-395.777"/>
</g>
<!-- \\phpWTL\\phpWTL -->
<g id="node21" class="node"><title>\\phpWTL\\phpWTL</title>
<polygon fill="none" stroke="black" points="789,-600 732,-600 732,-564 789,-564 789,-600"/>
<text text-anchor="middle" x="760.5" y="-579.2" font-family="Courier,monospace" font-size="11.00">phpWTL</text>
</g>
<!-- \\phpWTL\\LoggerContent -->
<g id="node22" class="node"><title>\\phpWTL\\LoggerContent</title>
<polygon fill="none" stroke="black" points="812.5,-546 708.5,-546 708.5,-510 812.5,-510 812.5,-546"/>
<text text-anchor="middle" x="760.5" y="-525.2" font-family="Courier,monospace" font-size="11.00">LoggerContent</text>
</g>
<!-- \\phpWTL\\ExtendedDataRetriever -->
<g id="node23" class="node"><title>\\phpWTL\\ExtendedDataRetriever</title>
<polygon fill="none" stroke="black" points="585.5,-384 427.5,-384 427.5,-348 585.5,-348 585.5,-384"/>
<text text-anchor="middle" x="506.5" y="-363.2" font-family="Courier,monospace" font-size="11.00">ExtendedDataRetriever</text>
</g>
<!-- \\phpWTL\\ExtendedDataRetriever&#45;&gt;\\phpWTL\\aBasicDataRetriever -->
<g id="edge11" class="edge"><title>\\phpWTL\\ExtendedDataRetriever&#45;&gt;\\phpWTL\\aBasicDataRetriever</title>
<path fill="none" stroke="black" d="M427.264,-357.271C401.059,-354.348 371.784,-351.081 345.314,-348.128"/>
<polygon fill="none" stroke="black" points="345.645,-344.643 335.319,-347.013 344.869,-351.6 345.645,-344.643"/>
</g>
<!-- \\phpWTL\\LogBufferHelper -->
<g id="node24" class="node"><title>\\phpWTL\\LogBufferHelper</title>
<polygon fill="none" stroke="black" points="819.5,-492 701.5,-492 701.5,-456 819.5,-456 819.5,-492"/>
<text text-anchor="middle" x="760.5" y="-471.2" font-family="Courier,monospace" font-size="11.00">LogBufferHelper</text>
</g>
<!-- \\phpWTL\\LogBuffer -->
<g id="node25" class="node"><title>\\phpWTL\\LogBuffer</title>
<polygon fill="none" stroke="black" points="799,-438 722,-438 722,-402 799,-402 799,-438"/>
<text text-anchor="middle" x="760.5" y="-417.2" font-family="Courier,monospace" font-size="11.00">LogBuffer</text>
</g>
<!-- \\phpWTL\\aBasicDataValidator&#45;&gt;\\phpWTL\\aSingleton -->
<g id="edge12" class="edge"><title>\\phpWTL\\aBasicDataValidator&#45;&gt;\\phpWTL\\aSingleton</title>
<path fill="none" stroke="black" d="M189.904,-420C166.153,-420 140.203,-420 118.294,-420"/>
<polygon fill="none" stroke="black" points="118.214,-416.5 108.214,-420 118.214,-423.5 118.214,-416.5"/>
</g>
<!-- \\phpWTL\\CommonDataFormatter -->
<g id="node27" class="node"><title>\\phpWTL\\CommonDataFormatter</title>
<polygon fill="none" stroke="black" points="579,-222 434,-222 434,-186 579,-186 579,-222"/>
<text text-anchor="middle" x="506.5" y="-201.2" font-family="Courier,monospace" font-size="11.00">CommonDataFormatter</text>
</g>
<!-- \\phpWTL\\CommonDataFormatter&#45;&gt;\\phpWTL\\aBasicDataFormatter -->
<g id="edge13" class="edge"><title>\\phpWTL\\CommonDataFormatter&#45;&gt;\\phpWTL\\aBasicDataFormatter</title>
<path fill="none" stroke="black" d="M433.874,-196.009C406.072,-192.907 374.071,-189.336 345.364,-186.134"/>
<polygon fill="none" stroke="black" points="345.687,-182.648 335.36,-185.017 344.91,-189.605 345.687,-182.648"/>
</g>
<!-- \\phpWTL\\aBasicFormatDescriptor -->
<g id="node28" class="node"><title>\\phpWTL\\aBasicFormatDescriptor</title>
<polygon fill="none" stroke="black" points="345,-681 180,-681 180,-645 345,-645 345,-681"/>
<text text-anchor="start" x="228.5" y="-666.2" font-family="Courier,monospace" font-size="11.00">«abstract»</text>
<text text-anchor="start" x="188" y="-654.2" font-family="Courier,monospace" font-size="11.00">aBasicFormatDescriptor</text>
</g>
<!-- \\phpWTL\\aBasicFormatDescriptor&#45;&gt;\\phpWTL\\aSingleton -->
<g id="edge14" class="edge"><title>\\phpWTL\\aBasicFormatDescriptor&#45;&gt;\\phpWTL\\aSingleton</title>
<path fill="none" stroke="black" d="M246.881,-644.736C212.723,-602.061 127.578,-495.684 87.9292,-446.148"/>
<polygon fill="none" stroke="black" points="90.5049,-443.765 81.5234,-438.145 85.0399,-448.139 90.5049,-443.765"/>
</g>
<!-- \\phpWTL\\CombinedDataFormatter -->
<g id="node29" class="node"><title>\\phpWTL\\CombinedDataFormatter</title>
<polygon fill="none" stroke="black" points="839.5,-276 681.5,-276 681.5,-240 839.5,-240 839.5,-276"/>
<text text-anchor="middle" x="760.5" y="-255.2" font-family="Courier,monospace" font-size="11.00">CombinedDataFormatter</text>
</g>
<!-- \\phpWTL\\CombinedDataFormatter&#45;&gt;\\phpWTL\\CommonDataFormatter -->
<g id="edge15" class="edge"><title>\\phpWTL\\CombinedDataFormatter&#45;&gt;\\phpWTL\\CommonDataFormatter</title>
<path fill="none" stroke="black" d="M681.491,-241.284C652.141,-234.994 618.706,-227.83 589.042,-221.473"/>
<polygon fill="none" stroke="black" points="589.649,-218.024 579.138,-219.351 588.182,-224.869 589.649,-218.024"/>
</g>
<!-- \\phpWTL\\PhpAppDataFormatter -->
<g id="node30" class="node"><title>\\phpWTL\\PhpAppDataFormatter</title>
<polygon fill="none" stroke="black" points="579,-114 434,-114 434,-78 579,-78 579,-114"/>
<text text-anchor="middle" x="506.5" y="-93.2" font-family="Courier,monospace" font-size="11.00">PhpAppDataFormatter</text>
</g>
<!-- \\phpWTL\\PhpAppDataFormatter&#45;&gt;\\phpWTL\\aBasicDataFormatter -->
<g id="edge16" class="edge"><title>\\phpWTL\\PhpAppDataFormatter&#45;&gt;\\phpWTL\\aBasicDataFormatter</title>
<path fill="none" stroke="black" d="M441.296,-114.046C431.615,-116.939 421.771,-119.978 412.5,-123 381.845,-132.993 348.034,-145.152 320.38,-155.401"/>
<polygon fill="none" stroke="black" points="319.022,-152.172 310.87,-158.939 321.463,-158.732 319.022,-152.172"/>
</g>
<!-- \\phpWTL\\CommonFormatDescriptor&#45;&gt;\\phpWTL\\aBasicFormatDescriptor -->
<g id="edge17" class="edge"><title>\\phpWTL\\CommonFormatDescriptor&#45;&gt;\\phpWTL\\aBasicFormatDescriptor</title>
<path fill="none" stroke="black" d="M423.907,-645.103C401.894,-647.559 377.926,-650.233 355.391,-652.748"/>
<polygon fill="none" stroke="black" points="354.7,-649.303 345.15,-653.89 355.477,-656.26 354.7,-649.303"/>
</g>
<!-- \\phpWTL\\CommonLogger&#45;&gt;\\phpWTL\\aBasicLogger -->
<g id="edge18" class="edge"><title>\\phpWTL\\CommonLogger&#45;&gt;\\phpWTL\\aBasicLogger</title>
<path fill="none" stroke="black" d="M457.399,-479.367C418.305,-483.728 363.026,-489.896 321.487,-494.53"/>
<polygon fill="none" stroke="black" points="321.06,-491.056 311.51,-495.644 321.836,-498.013 321.06,-491.056"/>
</g>
<!-- \\phpWTL\\CommonDataRetriever -->
<g id="node33" class="node"><title>\\phpWTL\\CommonDataRetriever</title>
<polygon fill="none" stroke="black" points="579,-330 434,-330 434,-294 579,-294 579,-330"/>
<text text-anchor="middle" x="506.5" y="-309.2" font-family="Courier,monospace" font-size="11.00">CommonDataRetriever</text>
</g>
<!-- \\phpWTL\\CommonDataRetriever&#45;&gt;\\phpWTL\\aBasicDataRetriever -->
<g id="edge20" class="edge"><title>\\phpWTL\\CommonDataRetriever&#45;&gt;\\phpWTL\\aBasicDataRetriever</title>
<path fill="none" stroke="black" d="M433.874,-319.991C406.072,-323.093 374.071,-326.664 345.364,-329.866"/>
<polygon fill="none" stroke="black" points="344.91,-326.395 335.36,-330.983 345.687,-333.352 344.91,-326.395"/>
</g>
<!-- \\phpWTL\\aBasicLogger&#45;&gt;\\phpWTL\\aSingleton -->
<g id="edge21" class="edge"><title>\\phpWTL\\aBasicLogger&#45;&gt;\\phpWTL\\aSingleton</title>
<path fill="none" stroke="black" d="M217.85,-482.822C188.11,-470.437 148.645,-454.001 117.54,-441.047"/>
<polygon fill="none" stroke="black" points="118.752,-437.761 108.175,-437.147 116.061,-444.223 118.752,-437.761"/>
</g>
<!-- \\phpWTL\\DRP -->
<g id="node35" class="node"><title>\\phpWTL\\DRP</title>
<polygon fill="none" stroke="black" points="787.5,-330 733.5,-330 733.5,-294 787.5,-294 787.5,-330"/>
<text text-anchor="middle" x="760.5" y="-309.2" font-family="Courier,monospace" font-size="11.00">DRP</text>
</g>
<!-- \\phpWTL\\PhpAppFormatDescriptor -->
<g id="node36" class="node"><title>\\phpWTL\\PhpAppFormatDescriptor</title>
<polygon fill="none" stroke="black" points="589,-762 424,-762 424,-726 589,-726 589,-762"/>
<text text-anchor="middle" x="506.5" y="-741.2" font-family="Courier,monospace" font-size="11.00">PhpAppFormatDescriptor</text>
</g>
<!-- \\phpWTL\\PhpAppFormatDescriptor&#45;&gt;\\phpWTL\\aBasicFormatDescriptor -->
<g id="edge22" class="edge"><title>\\phpWTL\\PhpAppFormatDescriptor&#45;&gt;\\phpWTL\\aBasicFormatDescriptor</title>
<path fill="none" stroke="black" d="M441.296,-725.954C431.615,-723.061 421.771,-720.022 412.5,-717 381.845,-707.007 348.034,-694.848 320.38,-684.599"/>
<polygon fill="none" stroke="black" points="321.463,-681.268 310.87,-681.061 319.022,-687.828 321.463,-681.268"/>
</g>
<!-- \\phpWTL\\CombinedDataRetriever -->
<g id="node37" class="node"><title>\\phpWTL\\CombinedDataRetriever</title>
<polygon fill="none" stroke="black" points="839.5,-384 681.5,-384 681.5,-348 839.5,-348 839.5,-384"/>
<text text-anchor="middle" x="760.5" y="-363.2" font-family="Courier,monospace" font-size="11.00">CombinedDataRetriever</text>
</g>
<!-- \\phpWTL\\CombinedDataRetriever&#45;&gt;\\phpWTL\\CommonDataRetriever -->
<g id="edge23" class="edge"><title>\\phpWTL\\CombinedDataRetriever&#45;&gt;\\phpWTL\\CommonDataRetriever</title>
<path fill="none" stroke="black" d="M681.491,-349.284C652.141,-342.994 618.706,-335.83 589.042,-329.473"/>
<polygon fill="none" stroke="black" points="589.649,-326.024 579.138,-327.351 588.182,-332.869 589.649,-326.024"/>
</g>
<!-- \\phpWTL\\ExtendedFormatDescriptor -->
<g id="node38" class="node"><title>\\phpWTL\\ExtendedFormatDescriptor</title>
<polygon fill="none" stroke="black" points="596,-708 417,-708 417,-672 596,-672 596,-708"/>
<text text-anchor="middle" x="506.5" y="-687.2" font-family="Courier,monospace" font-size="11.00">ExtendedFormatDescriptor</text>
</g>
<!-- \\phpWTL\\ExtendedFormatDescriptor&#45;&gt;\\phpWTL\\aBasicFormatDescriptor -->
<g id="edge24" class="edge"><title>\\phpWTL\\ExtendedFormatDescriptor&#45;&gt;\\phpWTL\\aBasicFormatDescriptor</title>
<path fill="none" stroke="black" d="M416.762,-680.1C396.683,-677.859 375.325,-675.476 355.128,-673.223"/>
<polygon fill="none" stroke="black" points="355.33,-669.724 345.003,-672.093 354.553,-676.681 355.33,-669.724"/>
</g>
<!-- \\phpWTL\\DescriptorField -->
<g id="node39" class="node"><title>\\phpWTL\\DescriptorField</title>
<polygon fill="none" stroke="black" points="819.5,-222 701.5,-222 701.5,-186 819.5,-186 819.5,-222"/>
<text text-anchor="middle" x="760.5" y="-201.2" font-family="Courier,monospace" font-size="11.00">DescriptorField</text>
</g>
<!-- \\phpWTL\\ExtendedLogger -->
<g id="node40" class="node"><title>\\phpWTL\\ExtendedLogger</title>
<polygon fill="none" stroke="black" points="562,-546 451,-546 451,-510 562,-510 562,-546"/>
<text text-anchor="middle" x="506.5" y="-525.2" font-family="Courier,monospace" font-size="11.00">ExtendedLogger</text>
</g>
<!-- \\phpWTL\\ExtendedLogger&#45;&gt;\\phpWTL\\aBasicLogger -->
<g id="edge25" class="edge"><title>\\phpWTL\\ExtendedLogger&#45;&gt;\\phpWTL\\aBasicLogger</title>
<path fill="none" stroke="black" d="M450.889,-521.907C412.416,-517.615 360.975,-511.875 321.723,-507.496"/>
<polygon fill="none" stroke="black" points="322.092,-504.016 311.766,-506.385 321.316,-510.972 322.092,-504.016"/>
</g>
<!-- \\phpWTL\\DataRetrievalPolicy -->
<g id="node41" class="node"><title>\\phpWTL\\DataRetrievalPolicy</title>
<polygon fill="none" stroke="black" points="833,-168 688,-168 688,-132 833,-132 833,-168"/>
<text text-anchor="middle" x="760.5" y="-147.2" font-family="Courier,monospace" font-size="11.00">DataRetrievalPolicy</text>
</g>
<!-- \\phpWTL\\DataRetrievalPolicyHelper -->
<g id="node42" class="node"><title>\\phpWTL\\DataRetrievalPolicyHelper</title>
<polygon fill="none" stroke="black" points="853,-114 668,-114 668,-78 853,-78 853,-114"/>
<text text-anchor="middle" x="760.5" y="-93.2" font-family="Courier,monospace" font-size="11.00">DataRetrievalPolicyHelper</text>
</g>
<!-- \\phpWTL\\FormatDescriptorHelper -->
<g id="node43" class="node"><title>\\phpWTL\\FormatDescriptorHelper</title>
<polygon fill="none" stroke="black" points="843,-60 678,-60 678,-24 843,-24 843,-60"/>
<text text-anchor="middle" x="760.5" y="-39.2" font-family="Courier,monospace" font-size="11.00">FormatDescriptorHelper</text>
</g>
</g>
</svg>
